<?xml version="1.0" encoding="UTF-8" standalone="no"?>
<!DOCTYPE svg PUBLIC "-//W3C//DTD SVG 1.1//EN"
 "http://www.w3.org/Graphics/SVG/1.1/DTD/svg11.dtd">
<!-- Generated by graphviz version 5.0.0 (20220707.1540)
 -->
<!-- Title: dependencies Pages: 1 -->
<svg width="312pt" height="174pt"
 viewBox="0.00 0.00 312.00 173.80" xmlns="http://www.w3.org/2000/svg" xmlns:xlink="http://www.w3.org/1999/xlink">
<g id="graph0" class="graph" transform="scale(1 1) rotate(0) translate(4 169.8)">
<title>dependencies</title>
<polygon fill="white" stroke="transparent" points="-4,4 -4,-169.8 308,-169.8 308,4 -4,4"/>
<text text-anchor="middle" x="152" y="-8.2" font-family="sans-serif" font-size="14.00">dependencies</text>
<g id="clust1" class="cluster">
<title>cluster_ClientModule</title>
<polygon fill="none" stroke="black" stroke-dasharray="1,5" points="8,-32.8 8,-157.8 296,-157.8 296,-32.8 8,-32.8"/>
</g>
<g id="clust3" class="cluster">
<title>cluster_ClientModule_imports</title>
<polygon fill="none" stroke="black" points="16,-40.8 16,-92.8 288,-92.8 288,-40.8 16,-40.8"/>
</g>
<!-- ClientRoutingModule -->
<g id="node1" class="node">
<title>ClientRoutingModule</title>
<polygon fill="#8dd3c7" stroke="black" points="280.39,-84.8 277.39,-88.8 256.39,-88.8 253.39,-84.8 141.61,-84.8 141.61,-48.8 280.39,-48.8 280.39,-84.8"/>
<text text-anchor="middle" x="211" y="-62.6" font-family="Times,serif" font-size="14.00">ClientRoutingModule</text>
</g>
<!-- ClientModule -->
<g id="node3" class="node">
<title>ClientModule</title>
<polygon fill="#8dd3c7" stroke="black" points="188.77,-149.8 185.77,-153.8 164.77,-153.8 161.77,-149.8 95.23,-149.8 95.23,-113.8 188.77,-113.8 188.77,-149.8"/>
<text text-anchor="middle" x="142" y="-127.6" font-family="Times,serif" font-size="14.00">ClientModule</text>
</g>
<!-- ClientRoutingModule&#45;&gt;ClientModule -->
<g id="edge1" class="edge">
<title>ClientRoutingModule&#45;&gt;ClientModule</title>
<path fill="none" stroke="black" d="M165.22,-84.91C165.22,-84.91 165.22,-103.79 165.22,-103.79"/>
<polygon fill="black" stroke="black" points="161.72,-103.79 165.22,-113.79 168.72,-103.79 161.72,-103.79"/>
</g>
<!-- LayoutModule -->
<g id="node2" class="node">
<title>LayoutModule</title>
<polygon fill="#8dd3c7" stroke="black" points="123.71,-84.8 120.71,-88.8 99.71,-88.8 96.71,-84.8 24.29,-84.8 24.29,-48.8 123.71,-48.8 123.71,-84.8"/>
<text text-anchor="middle" x="74" y="-62.6" font-family="Times,serif" font-size="14.00">LayoutModule</text>
</g>
<!-- LayoutModule&#45;&gt;ClientModule -->
<g id="edge2" class="edge">
<title>LayoutModule&#45;&gt;ClientModule</title>
<path fill="none" stroke="black" d="M109.36,-84.91C109.36,-84.91 109.36,-103.79 109.36,-103.79"/>
<polygon fill="black" stroke="black" points="105.86,-103.79 109.36,-113.79 112.86,-103.79 105.86,-103.79"/>
</g>
</g>
</svg>
