<?xml version="1.0" encoding="UTF-8" standalone="no"?>
<!DOCTYPE svg PUBLIC "-//W3C//DTD SVG 1.1//EN"
 "http://www.w3.org/Graphics/SVG/1.1/DTD/svg11.dtd">
<!-- Generated by graphviz version 5.0.0 (20220707.1540)
 -->
<!-- Title: dependencies Pages: 1 -->
<svg width="452pt" height="247pt"
 viewBox="0.00 0.00 452.00 246.80" xmlns="http://www.w3.org/2000/svg" xmlns:xlink="http://www.w3.org/1999/xlink">
<g id="graph0" class="graph" transform="scale(1 1) rotate(0) translate(4 242.8)">
<title>dependencies</title>
<polygon fill="white" stroke="transparent" points="-4,4 -4,-242.8 448,-242.8 448,4 -4,4"/>
<text text-anchor="middle" x="222" y="-8.2" font-family="sans-serif" font-size="14.00">dependencies</text>
<g id="clust1" class="cluster">
<title>cluster_ClientModule</title>
<polygon fill="none" stroke="black" stroke-dasharray="1,5" points="8,-32.8 8,-230.8 436,-230.8 436,-32.8 8,-32.8"/>
</g>
<g id="clust4" class="cluster">
<title>cluster_ClientModule_imports</title>
<polygon fill="none" stroke="black" points="156,-40.8 156,-92.8 428,-92.8 428,-40.8 156,-40.8"/>
</g>
<g id="clust5" class="cluster">
<title>cluster_ClientModule_exports</title>
<polygon fill="none" stroke="black" points="146,-170.8 146,-222.8 282,-222.8 282,-170.8 146,-170.8"/>
</g>
<g id="clust2" class="cluster">
<title>cluster_ClientModule_declarations</title>
<polygon fill="none" stroke="black" points="16,-40.8 16,-92.8 148,-92.8 148,-40.8 16,-40.8"/>
</g>
<!-- ClientComponent -->
<g id="node1" class="node">
<title>ClientComponent</title>
<polygon fill="#ffffb3" stroke="black" points="139.55,-84.8 24.45,-84.8 24.45,-48.8 139.55,-48.8 139.55,-84.8"/>
<text text-anchor="middle" x="82" y="-62.6" font-family="Times,serif" font-size="14.00">ClientComponent</text>
</g>
<!-- ClientModule -->
<g id="node2" class="node">
<title>ClientModule</title>
<polygon fill="#8dd3c7" stroke="black" points="260.77,-149.8 257.77,-153.8 236.77,-153.8 233.77,-149.8 167.23,-149.8 167.23,-113.8 260.77,-113.8 260.77,-149.8"/>
<text text-anchor="middle" x="214" y="-127.6" font-family="Times,serif" font-size="14.00">ClientModule</text>
</g>
<!-- ClientComponent&#45;&gt;ClientModule -->
<g id="edge1" class="edge">
<title>ClientComponent&#45;&gt;ClientModule</title>
<path fill="none" stroke="black" d="M82,-84.91C82,-104.14 82,-131.8 82,-131.8 82,-131.8 157.09,-131.8 157.09,-131.8"/>
<polygon fill="black" stroke="black" points="157.09,-135.3 167.09,-131.8 157.09,-128.3 157.09,-135.3"/>
</g>
<!-- ClientComponent  -->
<g id="node5" class="node">
<title>ClientComponent </title>
<polygon fill="#fb8072" stroke="black" points="273.55,-214.8 154.45,-214.8 154.45,-178.8 273.55,-178.8 273.55,-214.8"/>
<text text-anchor="middle" x="214" y="-192.6" font-family="Times,serif" font-size="14.00">ClientComponent </text>
</g>
<!-- ClientModule&#45;&gt;ClientComponent  -->
<g id="edge4" class="edge">
<title>ClientModule&#45;&gt;ClientComponent </title>
<path fill="none" stroke="black" stroke-dasharray="5,2" d="M214,-149.91C214,-149.91 214,-168.79 214,-168.79"/>
<polygon fill="black" stroke="black" points="210.5,-168.79 214,-178.79 217.5,-168.79 210.5,-168.79"/>
</g>
<!-- ClientRoutingModule -->
<g id="node3" class="node">
<title>ClientRoutingModule</title>
<polygon fill="#8dd3c7" stroke="black" points="420.39,-84.8 417.39,-88.8 396.39,-88.8 393.39,-84.8 281.61,-84.8 281.61,-48.8 420.39,-48.8 420.39,-84.8"/>
<text text-anchor="middle" x="351" y="-62.6" font-family="Times,serif" font-size="14.00">ClientRoutingModule</text>
</g>
<!-- ClientRoutingModule&#45;&gt;ClientModule -->
<g id="edge2" class="edge">
<title>ClientRoutingModule&#45;&gt;ClientModule</title>
<path fill="none" stroke="black" d="M351,-84.91C351,-104.14 351,-131.8 351,-131.8 351,-131.8 271.15,-131.8 271.15,-131.8"/>
<polygon fill="black" stroke="black" points="271.15,-128.3 261.15,-131.8 271.15,-135.3 271.15,-128.3"/>
</g>
<!-- LayoutModule -->
<g id="node4" class="node">
<title>LayoutModule</title>
<polygon fill="#8dd3c7" stroke="black" points="263.71,-84.8 260.71,-88.8 239.71,-88.8 236.71,-84.8 164.29,-84.8 164.29,-48.8 263.71,-48.8 263.71,-84.8"/>
<text text-anchor="middle" x="214" y="-62.6" font-family="Times,serif" font-size="14.00">LayoutModule</text>
</g>
<!-- LayoutModule&#45;&gt;ClientModule -->
<g id="edge3" class="edge">
<title>LayoutModule&#45;&gt;ClientModule</title>
<path fill="none" stroke="black" d="M214,-84.91C214,-84.91 214,-103.79 214,-103.79"/>
<polygon fill="black" stroke="black" points="210.5,-103.79 214,-113.79 217.5,-103.79 210.5,-103.79"/>
</g>
</g>
</svg>
