<?xml version="1.0" encoding="UTF-8" standalone="no"?>
<!DOCTYPE svg PUBLIC "-//W3C//DTD SVG 1.1//EN"
 "http://www.w3.org/Graphics/SVG/1.1/DTD/svg11.dtd">
<!-- Generated by graphviz version 5.0.0 (20220707.1540)
 -->
<!-- Title: dependencies Pages: 1 -->
<svg width="1179pt" height="247pt"
 viewBox="0.00 0.00 1179.00 246.80" xmlns="http://www.w3.org/2000/svg" xmlns:xlink="http://www.w3.org/1999/xlink">
<g id="graph0" class="graph" transform="scale(1 1) rotate(0) translate(4 242.8)">
<title>dependencies</title>
<polygon fill="white" stroke="transparent" points="-4,4 -4,-242.8 1175,-242.8 1175,4 -4,4"/>
<text text-anchor="middle" x="585.5" y="-8.2" font-family="sans-serif" font-size="14.00">dependencies</text>
<g id="clust1" class="cluster">
<title>cluster_CommandeModule</title>
<polygon fill="none" stroke="black" stroke-dasharray="1,5" points="8,-32.8 8,-230.8 1163,-230.8 1163,-32.8 8,-32.8"/>
</g>
<g id="clust8" class="cluster">
<title>cluster_CommandeModule_imports</title>
<polygon fill="none" stroke="black" points="734,-40.8 734,-92.8 1155,-92.8 1155,-40.8 734,-40.8"/>
</g>
<g id="clust9" class="cluster">
<title>cluster_CommandeModule_exports</title>
<polygon fill="none" stroke="black" points="355,-170.8 355,-222.8 784,-222.8 784,-170.8 355,-170.8"/>
</g>
<g id="clust2" class="cluster">
<title>cluster_CommandeModule_declarations</title>
<polygon fill="none" stroke="black" points="16,-40.8 16,-92.8 726,-92.8 726,-40.8 16,-40.8"/>
</g>
<!-- CommandeComponent -->
<g id="node1" class="node">
<title>CommandeComponent</title>
<polygon fill="#ffffb3" stroke="black" points="717.88,-84.8 572.12,-84.8 572.12,-48.8 717.88,-48.8 717.88,-84.8"/>
<text text-anchor="middle" x="645" y="-62.6" font-family="Times,serif" font-size="14.00">CommandeComponent</text>
</g>
<!-- CommandeModule -->
<g id="node6" class="node">
<title>CommandeModule</title>
<polygon fill="#8dd3c7" stroke="black" points="633.1,-149.8 630.1,-153.8 609.1,-153.8 606.1,-149.8 508.9,-149.8 508.9,-113.8 633.1,-113.8 633.1,-149.8"/>
<text text-anchor="middle" x="571" y="-127.6" font-family="Times,serif" font-size="14.00">CommandeModule</text>
</g>
<!-- CommandeComponent&#45;&gt;CommandeModule -->
<g id="edge1" class="edge">
<title>CommandeComponent&#45;&gt;CommandeModule</title>
<path fill="none" stroke="black" d="M602.56,-84.91C602.56,-84.91 602.56,-103.79 602.56,-103.79"/>
<polygon fill="black" stroke="black" points="599.06,-103.79 602.56,-113.79 606.06,-103.79 599.06,-103.79"/>
</g>
<!-- LigneComponent -->
<g id="node2" class="node">
<title>LigneComponent</title>
<polygon fill="#ffffb3" stroke="black" points="553.99,-84.8 440.01,-84.8 440.01,-48.8 553.99,-48.8 553.99,-84.8"/>
<text text-anchor="middle" x="497" y="-62.6" font-family="Times,serif" font-size="14.00">LigneComponent</text>
</g>
<!-- LigneComponent&#45;&gt;CommandeModule -->
<g id="edge2" class="edge">
<title>LigneComponent&#45;&gt;CommandeModule</title>
<path fill="none" stroke="black" d="M531.47,-84.91C531.47,-84.91 531.47,-103.79 531.47,-103.79"/>
<polygon fill="black" stroke="black" points="527.97,-103.79 531.47,-113.79 534.97,-103.79 527.97,-103.79"/>
</g>
<!-- ListeComponent -->
<g id="node3" class="node">
<title>ListeComponent</title>
<polygon fill="#ffffb3" stroke="black" points="421.82,-84.8 312.18,-84.8 312.18,-48.8 421.82,-48.8 421.82,-84.8"/>
<text text-anchor="middle" x="367" y="-62.6" font-family="Times,serif" font-size="14.00">ListeComponent</text>
</g>
<!-- ListeComponent&#45;&gt;CommandeModule -->
<g id="edge3" class="edge">
<title>ListeComponent&#45;&gt;CommandeModule</title>
<path fill="none" stroke="black" d="M392.18,-84.81C392.18,-100.85 392.18,-121.8 392.18,-121.8 392.18,-121.8 498.71,-121.8 498.71,-121.8"/>
<polygon fill="black" stroke="black" points="498.71,-125.3 508.71,-121.8 498.71,-118.3 498.71,-125.3"/>
</g>
<!-- LivraisonComponent -->
<g id="node4" class="node">
<title>LivraisonComponent</title>
<polygon fill="#ffffb3" stroke="black" points="294.49,-84.8 159.51,-84.8 159.51,-48.8 294.49,-48.8 294.49,-84.8"/>
<text text-anchor="middle" x="227" y="-62.6" font-family="Times,serif" font-size="14.00">LivraisonComponent</text>
</g>
<!-- LivraisonComponent&#45;&gt;CommandeModule -->
<g id="edge4" class="edge">
<title>LivraisonComponent&#45;&gt;CommandeModule</title>
<path fill="none" stroke="black" d="M227,-85.07C227,-103.36 227,-128.8 227,-128.8 227,-128.8 498.7,-128.8 498.7,-128.8"/>
<polygon fill="black" stroke="black" points="498.7,-132.3 508.7,-128.8 498.7,-125.3 498.7,-132.3"/>
</g>
<!-- PanierComponent -->
<g id="node5" class="node">
<title>PanierComponent</title>
<polygon fill="#ffffb3" stroke="black" points="141.6,-84.8 24.4,-84.8 24.4,-48.8 141.6,-48.8 141.6,-84.8"/>
<text text-anchor="middle" x="83" y="-62.6" font-family="Times,serif" font-size="14.00">PanierComponent</text>
</g>
<!-- PanierComponent&#45;&gt;CommandeModule -->
<g id="edge5" class="edge">
<title>PanierComponent&#45;&gt;CommandeModule</title>
<path fill="none" stroke="black" d="M83,-84.93C83,-105.37 83,-135.8 83,-135.8 83,-135.8 498.7,-135.8 498.7,-135.8"/>
<polygon fill="black" stroke="black" points="498.7,-139.3 508.7,-135.8 498.7,-132.3 498.7,-139.3"/>
</g>
<!-- LigneComponent  -->
<g id="node10" class="node">
<title>LigneComponent </title>
<polygon fill="#fb8072" stroke="black" points="775.99,-214.8 658.01,-214.8 658.01,-178.8 775.99,-178.8 775.99,-214.8"/>
<text text-anchor="middle" x="717" y="-192.6" font-family="Times,serif" font-size="14.00">LigneComponent </text>
</g>
<!-- CommandeModule&#45;&gt;LigneComponent  -->
<g id="edge9" class="edge">
<title>CommandeModule&#45;&gt;LigneComponent </title>
<path fill="none" stroke="black" stroke-dasharray="5,2" d="M633.32,-142.8C661.28,-142.8 688.1,-142.8 688.1,-142.8 688.1,-142.8 688.1,-168.52 688.1,-168.52"/>
<polygon fill="black" stroke="black" points="684.6,-168.52 688.1,-178.52 691.6,-168.52 684.6,-168.52"/>
</g>
<!-- LivraisonComponent  -->
<g id="node11" class="node">
<title>LivraisonComponent </title>
<polygon fill="#fb8072" stroke="black" points="640.49,-214.8 501.51,-214.8 501.51,-178.8 640.49,-178.8 640.49,-214.8"/>
<text text-anchor="middle" x="571" y="-192.6" font-family="Times,serif" font-size="14.00">LivraisonComponent </text>
</g>
<!-- CommandeModule&#45;&gt;LivraisonComponent  -->
<g id="edge10" class="edge">
<title>CommandeModule&#45;&gt;LivraisonComponent </title>
<path fill="none" stroke="black" stroke-dasharray="5,2" d="M571,-149.91C571,-149.91 571,-168.79 571,-168.79"/>
<polygon fill="black" stroke="black" points="567.5,-168.79 571,-178.79 574.5,-168.79 567.5,-168.79"/>
</g>
<!-- PanierComponent  -->
<g id="node12" class="node">
<title>PanierComponent </title>
<polygon fill="#fb8072" stroke="black" points="483.1,-214.8 362.9,-214.8 362.9,-178.8 483.1,-178.8 483.1,-214.8"/>
<text text-anchor="middle" x="423" y="-192.6" font-family="Times,serif" font-size="14.00">PanierComponent </text>
</g>
<!-- CommandeModule&#45;&gt;PanierComponent  -->
<g id="edge11" class="edge">
<title>CommandeModule&#45;&gt;PanierComponent </title>
<path fill="none" stroke="black" stroke-dasharray="5,2" d="M508.66,-142.8C484.1,-142.8 461.65,-142.8 461.65,-142.8 461.65,-142.8 461.65,-168.52 461.65,-168.52"/>
<polygon fill="black" stroke="black" points="458.15,-168.52 461.65,-178.52 465.15,-168.52 458.15,-168.52"/>
</g>
<!-- CommandeRoutingModule -->
<g id="node7" class="node">
<title>CommandeRoutingModule</title>
<polygon fill="#8dd3c7" stroke="black" points="1146.71,-84.8 1143.71,-88.8 1122.71,-88.8 1119.71,-84.8 977.29,-84.8 977.29,-48.8 1146.71,-48.8 1146.71,-84.8"/>
<text text-anchor="middle" x="1062" y="-62.6" font-family="Times,serif" font-size="14.00">CommandeRoutingModule</text>
</g>
<!-- CommandeRoutingModule&#45;&gt;CommandeModule -->
<g id="edge6" class="edge">
<title>CommandeRoutingModule&#45;&gt;CommandeModule</title>
<path fill="none" stroke="black" d="M1062,-84.93C1062,-105.37 1062,-135.8 1062,-135.8 1062,-135.8 643.19,-135.8 643.19,-135.8"/>
<polygon fill="black" stroke="black" points="643.19,-132.3 633.19,-135.8 643.19,-139.3 643.19,-132.3"/>
</g>
<!-- LayoutModule -->
<g id="node8" class="node">
<title>LayoutModule</title>
<polygon fill="#8dd3c7" stroke="black" points="959.71,-84.8 956.71,-88.8 935.71,-88.8 932.71,-84.8 860.29,-84.8 860.29,-48.8 959.71,-48.8 959.71,-84.8"/>
<text text-anchor="middle" x="910" y="-62.6" font-family="Times,serif" font-size="14.00">LayoutModule</text>
</g>
<!-- LayoutModule&#45;&gt;CommandeModule -->
<g id="edge7" class="edge">
<title>LayoutModule&#45;&gt;CommandeModule</title>
<path fill="none" stroke="black" d="M910,-85.07C910,-103.36 910,-128.8 910,-128.8 910,-128.8 643.18,-128.8 643.18,-128.8"/>
<polygon fill="black" stroke="black" points="643.18,-125.3 633.18,-128.8 643.18,-132.3 643.18,-125.3"/>
</g>
<!-- ProduitModule -->
<g id="node9" class="node">
<title>ProduitModule</title>
<polygon fill="#8dd3c7" stroke="black" points="842.28,-84.8 839.28,-88.8 818.28,-88.8 815.28,-84.8 741.72,-84.8 741.72,-48.8 842.28,-48.8 842.28,-84.8"/>
<text text-anchor="middle" x="792" y="-62.6" font-family="Times,serif" font-size="14.00">ProduitModule</text>
</g>
<!-- ProduitModule&#45;&gt;CommandeModule -->
<g id="edge8" class="edge">
<title>ProduitModule&#45;&gt;CommandeModule</title>
<path fill="none" stroke="black" d="M758.68,-84.81C758.68,-100.85 758.68,-121.8 758.68,-121.8 758.68,-121.8 643.23,-121.8 643.23,-121.8"/>
<polygon fill="black" stroke="black" points="643.23,-118.3 633.23,-121.8 643.23,-125.3 643.23,-118.3"/>
</g>
</g>
</svg>
