<?xml version="1.0" encoding="UTF-8" standalone="no"?>
<!DOCTYPE svg PUBLIC "-//W3C//DTD SVG 1.1//EN"
 "http://www.w3.org/Graphics/SVG/1.1/DTD/svg11.dtd">
<!-- Generated by graphviz version 5.0.0 (20220707.1540)
 -->
<!-- Title: dependencies Pages: 1 -->
<svg width="1356pt" height="247pt"
 viewBox="0.00 0.00 1356.00 246.80" xmlns="http://www.w3.org/2000/svg" xmlns:xlink="http://www.w3.org/1999/xlink">
<g id="graph0" class="graph" transform="scale(1 1) rotate(0) translate(4 242.8)">
<title>dependencies</title>
<polygon fill="white" stroke="transparent" points="-4,4 -4,-242.8 1352,-242.8 1352,4 -4,4"/>
<text text-anchor="middle" x="674" y="-8.2" font-family="sans-serif" font-size="14.00">dependencies</text>
<g id="clust1" class="cluster">
<title>cluster_CommandeModule</title>
<polygon fill="none" stroke="black" stroke-dasharray="1,5" points="8,-32.8 8,-230.8 1340,-230.8 1340,-32.8 8,-32.8"/>
</g>
<g id="clust2" class="cluster">
<title>cluster_CommandeModule_declarations</title>
<polygon fill="none" stroke="black" points="445,-40.8 445,-92.8 1332,-92.8 1332,-40.8 445,-40.8"/>
</g>
<g id="clust11" class="cluster">
<title>cluster_CommandeModule_exports</title>
<polygon fill="none" stroke="black" points="438,-170.8 438,-222.8 998,-222.8 998,-170.8 438,-170.8"/>
</g>
<g id="clust10" class="cluster">
<title>cluster_CommandeModule_imports</title>
<polygon fill="none" stroke="black" points="16,-40.8 16,-92.8 437,-92.8 437,-40.8 16,-40.8"/>
</g>
<!-- CommandeComponent -->
<g id="node1" class="node">
<title>CommandeComponent</title>
<polygon fill="#ffffb3" stroke="black" points="1323.88,-84.8 1178.12,-84.8 1178.12,-48.8 1323.88,-48.8 1323.88,-84.8"/>
<text text-anchor="middle" x="1251" y="-62.6" font-family="Times,serif" font-size="14.00">CommandeComponent</text>
</g>
<!-- CommandeModule -->
<g id="node8" class="node">
<title>CommandeModule</title>
<polygon fill="#8dd3c7" stroke="black" points="788.1,-149.8 785.1,-153.8 764.1,-153.8 761.1,-149.8 663.9,-149.8 663.9,-113.8 788.1,-113.8 788.1,-149.8"/>
<text text-anchor="middle" x="726" y="-127.6" font-family="Times,serif" font-size="14.00">CommandeModule</text>
</g>
<!-- CommandeComponent&#45;&gt;CommandeModule -->
<g id="edge1" class="edge">
<title>CommandeComponent&#45;&gt;CommandeModule</title>
<path fill="none" stroke="black" d="M1251,-85.08C1251,-106.12 1251,-137.8 1251,-137.8 1251,-137.8 798.29,-137.8 798.29,-137.8"/>
<polygon fill="black" stroke="black" points="798.29,-134.3 788.29,-137.8 798.29,-141.3 798.29,-134.3"/>
</g>
<!-- DateFilter -->
<g id="node2" class="node">
<title>DateFilter</title>
<polygon fill="#ffffb3" stroke="black" points="1160.26,-84.8 1087.74,-84.8 1087.74,-48.8 1160.26,-48.8 1160.26,-84.8"/>
<text text-anchor="middle" x="1124" y="-62.6" font-family="Times,serif" font-size="14.00">DateFilter</text>
</g>
<!-- DateFilter&#45;&gt;CommandeModule -->
<g id="edge2" class="edge">
<title>DateFilter&#45;&gt;CommandeModule</title>
<path fill="none" stroke="black" d="M1124,-84.91C1124,-104.14 1124,-131.8 1124,-131.8 1124,-131.8 798.19,-131.8 798.19,-131.8"/>
<polygon fill="black" stroke="black" points="798.19,-128.3 788.19,-131.8 798.19,-135.3 798.19,-128.3"/>
</g>
<!-- FiltreEtat -->
<g id="node3" class="node">
<title>FiltreEtat</title>
<polygon fill="#ffffb3" stroke="black" points="1069.38,-84.8 1000.62,-84.8 1000.62,-48.8 1069.38,-48.8 1069.38,-84.8"/>
<text text-anchor="middle" x="1035" y="-62.6" font-family="Times,serif" font-size="14.00">FiltreEtat</text>
</g>
<!-- FiltreEtat&#45;&gt;CommandeModule -->
<g id="edge3" class="edge">
<title>FiltreEtat&#45;&gt;CommandeModule</title>
<path fill="none" stroke="black" d="M1035,-84.82C1035,-102.17 1035,-125.8 1035,-125.8 1035,-125.8 798.16,-125.8 798.16,-125.8"/>
<polygon fill="black" stroke="black" points="798.16,-122.3 788.16,-125.8 798.16,-129.3 798.16,-122.3"/>
</g>
<!-- LigneComponent -->
<g id="node4" class="node">
<title>LigneComponent</title>
<polygon fill="#ffffb3" stroke="black" points="982.99,-84.8 869.01,-84.8 869.01,-48.8 982.99,-48.8 982.99,-84.8"/>
<text text-anchor="middle" x="926" y="-62.6" font-family="Times,serif" font-size="14.00">LigneComponent</text>
</g>
<!-- LigneComponent&#45;&gt;CommandeModule -->
<g id="edge4" class="edge">
<title>LigneComponent&#45;&gt;CommandeModule</title>
<path fill="none" stroke="black" d="M946.08,-85.04C946.08,-100.37 946.08,-119.8 946.08,-119.8 946.08,-119.8 798.18,-119.8 798.18,-119.8"/>
<polygon fill="black" stroke="black" points="798.18,-116.3 788.18,-119.8 798.18,-123.3 798.18,-116.3"/>
</g>
<!-- ListeComponent -->
<g id="node5" class="node">
<title>ListeComponent</title>
<polygon fill="#ffffb3" stroke="black" points="850.82,-84.8 741.18,-84.8 741.18,-48.8 850.82,-48.8 850.82,-84.8"/>
<text text-anchor="middle" x="796" y="-62.6" font-family="Times,serif" font-size="14.00">ListeComponent</text>
</g>
<!-- ListeComponent&#45;&gt;CommandeModule -->
<g id="edge5" class="edge">
<title>ListeComponent&#45;&gt;CommandeModule</title>
<path fill="none" stroke="black" d="M764.69,-84.91C764.69,-84.91 764.69,-103.79 764.69,-103.79"/>
<polygon fill="black" stroke="black" points="761.19,-103.79 764.69,-113.79 768.19,-103.79 761.19,-103.79"/>
</g>
<!-- LivraisonComponent -->
<g id="node6" class="node">
<title>LivraisonComponent</title>
<polygon fill="#ffffb3" stroke="black" points="723.49,-84.8 588.51,-84.8 588.51,-48.8 723.49,-48.8 723.49,-84.8"/>
<text text-anchor="middle" x="656" y="-62.6" font-family="Times,serif" font-size="14.00">LivraisonComponent</text>
</g>
<!-- LivraisonComponent&#45;&gt;CommandeModule -->
<g id="edge6" class="edge">
<title>LivraisonComponent&#45;&gt;CommandeModule</title>
<path fill="none" stroke="black" d="M693.72,-84.91C693.72,-84.91 693.72,-103.79 693.72,-103.79"/>
<polygon fill="black" stroke="black" points="690.22,-103.79 693.72,-113.79 697.22,-103.79 690.22,-103.79"/>
</g>
<!-- PanierComponent -->
<g id="node7" class="node">
<title>PanierComponent</title>
<polygon fill="#ffffb3" stroke="black" points="570.6,-84.8 453.4,-84.8 453.4,-48.8 570.6,-48.8 570.6,-84.8"/>
<text text-anchor="middle" x="512" y="-62.6" font-family="Times,serif" font-size="14.00">PanierComponent</text>
</g>
<!-- PanierComponent&#45;&gt;CommandeModule -->
<g id="edge7" class="edge">
<title>PanierComponent&#45;&gt;CommandeModule</title>
<path fill="none" stroke="black" d="M528.68,-85.04C528.68,-100.37 528.68,-119.8 528.68,-119.8 528.68,-119.8 653.84,-119.8 653.84,-119.8"/>
<polygon fill="black" stroke="black" points="653.84,-123.3 663.84,-119.8 653.84,-116.3 653.84,-123.3"/>
</g>
<!-- LigneComponent  -->
<g id="node12" class="node">
<title>LigneComponent </title>
<polygon fill="#fb8072" stroke="black" points="989.99,-214.8 872.01,-214.8 872.01,-178.8 989.99,-178.8 989.99,-214.8"/>
<text text-anchor="middle" x="931" y="-192.6" font-family="Times,serif" font-size="14.00">LigneComponent </text>
</g>
<!-- CommandeModule&#45;&gt;LigneComponent  -->
<g id="edge11" class="edge">
<title>CommandeModule&#45;&gt;LigneComponent </title>
<path fill="none" stroke="black" stroke-dasharray="5,2" d="M788.27,-143.8C841.37,-143.8 909.17,-143.8 909.17,-143.8 909.17,-143.8 909.17,-168.56 909.17,-168.56"/>
<polygon fill="black" stroke="black" points="905.67,-168.56 909.17,-178.56 912.67,-168.56 905.67,-168.56"/>
</g>
<!-- ListeComponent  -->
<g id="node13" class="node">
<title>ListeComponent </title>
<polygon fill="#fb8072" stroke="black" points="854.32,-214.8 741.68,-214.8 741.68,-178.8 854.32,-178.8 854.32,-214.8"/>
<text text-anchor="middle" x="798" y="-192.6" font-family="Times,serif" font-size="14.00">ListeComponent </text>
</g>
<!-- CommandeModule&#45;&gt;ListeComponent  -->
<g id="edge12" class="edge">
<title>CommandeModule&#45;&gt;ListeComponent </title>
<path fill="none" stroke="black" stroke-dasharray="5,2" d="M764.82,-149.91C764.82,-149.91 764.82,-168.79 764.82,-168.79"/>
<polygon fill="black" stroke="black" points="761.32,-168.79 764.82,-178.79 768.32,-168.79 761.32,-168.79"/>
</g>
<!-- LivraisonComponent  -->
<g id="node14" class="node">
<title>LivraisonComponent </title>
<polygon fill="#fb8072" stroke="black" points="723.49,-214.8 584.51,-214.8 584.51,-178.8 723.49,-178.8 723.49,-214.8"/>
<text text-anchor="middle" x="654" y="-192.6" font-family="Times,serif" font-size="14.00">LivraisonComponent </text>
</g>
<!-- CommandeModule&#45;&gt;LivraisonComponent  -->
<g id="edge13" class="edge">
<title>CommandeModule&#45;&gt;LivraisonComponent </title>
<path fill="none" stroke="black" stroke-dasharray="5,2" d="M693.6,-149.91C693.6,-149.91 693.6,-168.79 693.6,-168.79"/>
<polygon fill="black" stroke="black" points="690.1,-168.79 693.6,-178.79 697.1,-168.79 690.1,-168.79"/>
</g>
<!-- PanierComponent  -->
<g id="node15" class="node">
<title>PanierComponent </title>
<polygon fill="#fb8072" stroke="black" points="566.1,-214.8 445.9,-214.8 445.9,-178.8 566.1,-178.8 566.1,-214.8"/>
<text text-anchor="middle" x="506" y="-192.6" font-family="Times,serif" font-size="14.00">PanierComponent </text>
</g>
<!-- CommandeModule&#45;&gt;PanierComponent  -->
<g id="edge14" class="edge">
<title>CommandeModule&#45;&gt;PanierComponent </title>
<path fill="none" stroke="black" stroke-dasharray="5,2" d="M663.66,-143.8C594.06,-143.8 491.07,-143.8 491.07,-143.8 491.07,-143.8 491.07,-168.56 491.07,-168.56"/>
<polygon fill="black" stroke="black" points="487.57,-168.56 491.07,-178.56 494.57,-168.56 487.57,-168.56"/>
</g>
<!-- CommandeRoutingModule -->
<g id="node9" class="node">
<title>CommandeRoutingModule</title>
<polygon fill="#8dd3c7" stroke="black" points="428.71,-84.8 425.71,-88.8 404.71,-88.8 401.71,-84.8 259.29,-84.8 259.29,-48.8 428.71,-48.8 428.71,-84.8"/>
<text text-anchor="middle" x="344" y="-62.6" font-family="Times,serif" font-size="14.00">CommandeRoutingModule</text>
</g>
<!-- CommandeRoutingModule&#45;&gt;CommandeModule -->
<g id="edge8" class="edge">
<title>CommandeRoutingModule&#45;&gt;CommandeModule</title>
<path fill="none" stroke="black" d="M344,-84.82C344,-102.17 344,-125.8 344,-125.8 344,-125.8 653.77,-125.8 653.77,-125.8"/>
<polygon fill="black" stroke="black" points="653.77,-129.3 663.77,-125.8 653.77,-122.3 653.77,-129.3"/>
</g>
<!-- LayoutModule -->
<g id="node10" class="node">
<title>LayoutModule</title>
<polygon fill="#8dd3c7" stroke="black" points="241.71,-84.8 238.71,-88.8 217.71,-88.8 214.71,-84.8 142.29,-84.8 142.29,-48.8 241.71,-48.8 241.71,-84.8"/>
<text text-anchor="middle" x="192" y="-62.6" font-family="Times,serif" font-size="14.00">LayoutModule</text>
</g>
<!-- LayoutModule&#45;&gt;CommandeModule -->
<g id="edge9" class="edge">
<title>LayoutModule&#45;&gt;CommandeModule</title>
<path fill="none" stroke="black" d="M192,-84.91C192,-104.14 192,-131.8 192,-131.8 192,-131.8 653.7,-131.8 653.7,-131.8"/>
<polygon fill="black" stroke="black" points="653.7,-135.3 663.7,-131.8 653.7,-128.3 653.7,-135.3"/>
</g>
<!-- ProduitModule -->
<g id="node11" class="node">
<title>ProduitModule</title>
<polygon fill="#8dd3c7" stroke="black" points="124.28,-84.8 121.28,-88.8 100.28,-88.8 97.28,-84.8 23.72,-84.8 23.72,-48.8 124.28,-48.8 124.28,-84.8"/>
<text text-anchor="middle" x="74" y="-62.6" font-family="Times,serif" font-size="14.00">ProduitModule</text>
</g>
<!-- ProduitModule&#45;&gt;CommandeModule -->
<g id="edge10" class="edge">
<title>ProduitModule&#45;&gt;CommandeModule</title>
<path fill="none" stroke="black" d="M74,-85.08C74,-106.12 74,-137.8 74,-137.8 74,-137.8 653.78,-137.8 653.78,-137.8"/>
<polygon fill="black" stroke="black" points="653.78,-141.3 663.78,-137.8 653.78,-134.3 653.78,-141.3"/>
</g>
</g>
</svg>
