<?xml version="1.0" encoding="UTF-8" standalone="no"?>
<!DOCTYPE svg PUBLIC "-//W3C//DTD SVG 1.1//EN"
 "http://www.w3.org/Graphics/SVG/1.1/DTD/svg11.dtd">
<!-- Generated by graphviz version 5.0.0 (20220707.1540)
 -->
<!-- Title: dependencies Pages: 1 -->
<svg width="372pt" height="247pt"
 viewBox="0.00 0.00 372.00 246.80" xmlns="http://www.w3.org/2000/svg" xmlns:xlink="http://www.w3.org/1999/xlink">
<g id="graph0" class="graph" transform="scale(1 1) rotate(0) translate(4 242.8)">
<title>dependencies</title>
<polygon fill="white" stroke="transparent" points="-4,4 -4,-242.8 368,-242.8 368,4 -4,4"/>
<text text-anchor="middle" x="182" y="-8.2" font-family="sans-serif" font-size="14.00">dependencies</text>
<g id="clust1" class="cluster">
<title>cluster_SecuriteModule</title>
<polygon fill="none" stroke="black" stroke-dasharray="1,5" points="8,-32.8 8,-230.8 356,-230.8 356,-32.8 8,-32.8"/>
</g>
<g id="clust4" class="cluster">
<title>cluster_SecuriteModule_imports</title>
<polygon fill="none" stroke="black" points="182,-40.8 182,-92.8 348,-92.8 348,-40.8 182,-40.8"/>
</g>
<g id="clust5" class="cluster">
<title>cluster_SecuriteModule_exports</title>
<polygon fill="none" stroke="black" points="100,-170.8 100,-222.8 262,-222.8 262,-170.8 100,-170.8"/>
</g>
<g id="clust2" class="cluster">
<title>cluster_SecuriteModule_declarations</title>
<polygon fill="none" stroke="black" points="16,-40.8 16,-92.8 174,-92.8 174,-40.8 16,-40.8"/>
</g>
<!-- ConnexionComponent -->
<g id="node1" class="node">
<title>ConnexionComponent</title>
<polygon fill="#ffffb3" stroke="black" points="166.27,-84.8 23.73,-84.8 23.73,-48.8 166.27,-48.8 166.27,-84.8"/>
<text text-anchor="middle" x="95" y="-62.6" font-family="Times,serif" font-size="14.00">ConnexionComponent</text>
</g>
<!-- SecuriteModule -->
<g id="node2" class="node">
<title>SecuriteModule</title>
<polygon fill="#8dd3c7" stroke="black" points="233.92,-149.8 230.92,-153.8 209.92,-153.8 206.92,-149.8 128.08,-149.8 128.08,-113.8 233.92,-113.8 233.92,-149.8"/>
<text text-anchor="middle" x="181" y="-127.6" font-family="Times,serif" font-size="14.00">SecuriteModule</text>
</g>
<!-- ConnexionComponent&#45;&gt;SecuriteModule -->
<g id="edge1" class="edge">
<title>ConnexionComponent&#45;&gt;SecuriteModule</title>
<path fill="none" stroke="black" d="M147.34,-84.91C147.34,-84.91 147.34,-103.79 147.34,-103.79"/>
<polygon fill="black" stroke="black" points="143.84,-103.79 147.34,-113.79 150.84,-103.79 143.84,-103.79"/>
</g>
<!-- ConnexionComponent  -->
<g id="node4" class="node">
<title>ConnexionComponent </title>
<polygon fill="#fb8072" stroke="black" points="254.27,-214.8 107.73,-214.8 107.73,-178.8 254.27,-178.8 254.27,-214.8"/>
<text text-anchor="middle" x="181" y="-192.6" font-family="Times,serif" font-size="14.00">ConnexionComponent </text>
</g>
<!-- SecuriteModule&#45;&gt;ConnexionComponent  -->
<g id="edge3" class="edge">
<title>SecuriteModule&#45;&gt;ConnexionComponent </title>
<path fill="none" stroke="black" stroke-dasharray="5,2" d="M181,-149.91C181,-149.91 181,-168.79 181,-168.79"/>
<polygon fill="black" stroke="black" points="177.5,-168.79 181,-178.79 184.5,-168.79 177.5,-168.79"/>
</g>
<!-- SecuriteRoutingModule -->
<g id="node3" class="node">
<title>SecuriteRoutingModule</title>
<polygon fill="#8dd3c7" stroke="black" points="340.04,-84.8 337.04,-88.8 316.04,-88.8 313.04,-84.8 189.96,-84.8 189.96,-48.8 340.04,-48.8 340.04,-84.8"/>
<text text-anchor="middle" x="265" y="-62.6" font-family="Times,serif" font-size="14.00">SecuriteRoutingModule</text>
</g>
<!-- SecuriteRoutingModule&#45;&gt;SecuriteModule -->
<g id="edge2" class="edge">
<title>SecuriteRoutingModule&#45;&gt;SecuriteModule</title>
<path fill="none" stroke="black" d="M211.72,-84.91C211.72,-84.91 211.72,-103.79 211.72,-103.79"/>
<polygon fill="black" stroke="black" points="208.22,-103.79 211.72,-113.79 215.22,-103.79 208.22,-103.79"/>
</g>
</g>
</svg>
