<?xml version="1.0" encoding="UTF-8" standalone="no"?>
<!DOCTYPE svg PUBLIC "-//W3C//DTD SVG 1.1//EN"
 "http://www.w3.org/Graphics/SVG/1.1/DTD/svg11.dtd">
<!-- Generated by graphviz version 5.0.0 (20220707.1540)
 -->
<!-- Title: dependencies Pages: 1 -->
<svg width="372pt" height="247pt"
 viewBox="0.00 0.00 372.00 246.80" xmlns="http://www.w3.org/2000/svg" xmlns:xlink="http://www.w3.org/1999/xlink">
<g id="graph0" class="graph" transform="scale(1 1) rotate(0) translate(4 242.8)">
<title>dependencies</title>
<polygon fill="white" stroke="transparent" points="-4,4 -4,-242.8 368,-242.8 368,4 -4,4"/>
<text text-anchor="middle" x="182" y="-8.2" font-family="sans-serif" font-size="14.00">dependencies</text>
<g id="clust1" class="cluster">
<title>cluster_SecuriteModule</title>
<polygon fill="none" stroke="black" stroke-dasharray="1,5" points="8,-32.8 8,-230.8 356,-230.8 356,-32.8 8,-32.8"/>
</g>
<g id="clust2" class="cluster">
<title>cluster_SecuriteModule_declarations</title>
<polygon fill="none" stroke="black" points="190,-40.8 190,-92.8 348,-92.8 348,-40.8 190,-40.8"/>
</g>
<g id="clust4" class="cluster">
<title>cluster_SecuriteModule_imports</title>
<polygon fill="none" stroke="black" points="16,-40.8 16,-92.8 182,-92.8 182,-40.8 16,-40.8"/>
</g>
<g id="clust5" class="cluster">
<title>cluster_SecuriteModule_exports</title>
<polygon fill="none" stroke="black" points="102,-170.8 102,-222.8 264,-222.8 264,-170.8 102,-170.8"/>
</g>
<!-- ConnexionComponent -->
<g id="node1" class="node">
<title>ConnexionComponent</title>
<polygon fill="#ffffb3" stroke="black" points="340.27,-84.8 197.73,-84.8 197.73,-48.8 340.27,-48.8 340.27,-84.8"/>
<text text-anchor="middle" x="269" y="-62.6" font-family="Times,serif" font-size="14.00">ConnexionComponent</text>
</g>
<!-- SecuriteModule -->
<g id="node2" class="node">
<title>SecuriteModule</title>
<polygon fill="#8dd3c7" stroke="black" points="235.92,-149.8 232.92,-153.8 211.92,-153.8 208.92,-149.8 130.08,-149.8 130.08,-113.8 235.92,-113.8 235.92,-149.8"/>
<text text-anchor="middle" x="183" y="-127.6" font-family="Times,serif" font-size="14.00">SecuriteModule</text>
</g>
<!-- ConnexionComponent&#45;&gt;SecuriteModule -->
<g id="edge1" class="edge">
<title>ConnexionComponent&#45;&gt;SecuriteModule</title>
<path fill="none" stroke="black" d="M216.66,-84.91C216.66,-84.91 216.66,-103.79 216.66,-103.79"/>
<polygon fill="black" stroke="black" points="213.16,-103.79 216.66,-113.79 220.16,-103.79 213.16,-103.79"/>
</g>
<!-- ConnexionComponent  -->
<g id="node4" class="node">
<title>ConnexionComponent </title>
<polygon fill="#fb8072" stroke="black" points="256.27,-214.8 109.73,-214.8 109.73,-178.8 256.27,-178.8 256.27,-214.8"/>
<text text-anchor="middle" x="183" y="-192.6" font-family="Times,serif" font-size="14.00">ConnexionComponent </text>
</g>
<!-- SecuriteModule&#45;&gt;ConnexionComponent  -->
<g id="edge3" class="edge">
<title>SecuriteModule&#45;&gt;ConnexionComponent </title>
<path fill="none" stroke="black" stroke-dasharray="5,2" d="M183,-149.91C183,-149.91 183,-168.79 183,-168.79"/>
<polygon fill="black" stroke="black" points="179.5,-168.79 183,-178.79 186.5,-168.79 179.5,-168.79"/>
</g>
<!-- SecuriteRoutingModule -->
<g id="node3" class="node">
<title>SecuriteRoutingModule</title>
<polygon fill="#8dd3c7" stroke="black" points="174.04,-84.8 171.04,-88.8 150.04,-88.8 147.04,-84.8 23.96,-84.8 23.96,-48.8 174.04,-48.8 174.04,-84.8"/>
<text text-anchor="middle" x="99" y="-62.6" font-family="Times,serif" font-size="14.00">SecuriteRoutingModule</text>
</g>
<!-- SecuriteRoutingModule&#45;&gt;SecuriteModule -->
<g id="edge2" class="edge">
<title>SecuriteRoutingModule&#45;&gt;SecuriteModule</title>
<path fill="none" stroke="black" d="M152.28,-84.91C152.28,-84.91 152.28,-103.79 152.28,-103.79"/>
<polygon fill="black" stroke="black" points="148.78,-103.79 152.28,-113.79 155.78,-103.79 148.78,-103.79"/>
</g>
</g>
</svg>
