<?xml version="1.0" encoding="UTF-8" standalone="no"?>
<!DOCTYPE svg PUBLIC "-//W3C//DTD SVG 1.1//EN"
 "http://www.w3.org/Graphics/SVG/1.1/DTD/svg11.dtd">
<!-- Generated by graphviz version 5.0.0 (20220707.1540)
 -->
<!-- Title: dependencies Pages: 1 -->
<svg width="1673pt" height="247pt"
 viewBox="0.00 0.00 1673.00 246.80" xmlns="http://www.w3.org/2000/svg" xmlns:xlink="http://www.w3.org/1999/xlink">
<g id="graph0" class="graph" transform="scale(1 1) rotate(0) translate(4 242.8)">
<title>dependencies</title>
<polygon fill="white" stroke="transparent" points="-4,4 -4,-242.8 1669,-242.8 1669,4 -4,4"/>
<text text-anchor="middle" x="832.5" y="-8.2" font-family="sans-serif" font-size="14.00">dependencies</text>
<g id="clust1" class="cluster">
<title>cluster_ProduitModule</title>
<polygon fill="none" stroke="black" stroke-dasharray="1,5" points="8,-32.8 8,-230.8 1657,-230.8 1657,-32.8 8,-32.8"/>
</g>
<g id="clust13" class="cluster">
<title>cluster_ProduitModule_exports</title>
<polygon fill="none" stroke="black" points="436,-170.8 436,-222.8 1249,-222.8 1249,-170.8 436,-170.8"/>
</g>
<g id="clust2" class="cluster">
<title>cluster_ProduitModule_declarations</title>
<polygon fill="none" stroke="black" points="304,-40.8 304,-92.8 1649,-92.8 1649,-40.8 304,-40.8"/>
</g>
<g id="clust12" class="cluster">
<title>cluster_ProduitModule_imports</title>
<polygon fill="none" stroke="black" points="16,-40.8 16,-92.8 296,-92.8 296,-40.8 16,-40.8"/>
</g>
<!-- BlogComponent -->
<g id="node1" class="node">
<title>BlogComponent</title>
<polygon fill="#ffffb3" stroke="black" points="1641.06,-84.8 1532.94,-84.8 1532.94,-48.8 1641.06,-48.8 1641.06,-84.8"/>
<text text-anchor="middle" x="1587" y="-62.6" font-family="Times,serif" font-size="14.00">BlogComponent</text>
</g>
<!-- ProduitModule -->
<g id="node10" class="node">
<title>ProduitModule</title>
<polygon fill="#8dd3c7" stroke="black" points="867.28,-149.8 864.28,-153.8 843.28,-153.8 840.28,-149.8 766.72,-149.8 766.72,-113.8 867.28,-113.8 867.28,-149.8"/>
<text text-anchor="middle" x="817" y="-127.6" font-family="Times,serif" font-size="14.00">ProduitModule</text>
</g>
<!-- BlogComponent&#45;&gt;ProduitModule -->
<g id="edge1" class="edge">
<title>BlogComponent&#45;&gt;ProduitModule</title>
<path fill="none" stroke="black" d="M1587,-84.83C1587,-105.57 1587,-136.8 1587,-136.8 1587,-136.8 877.52,-136.8 877.52,-136.8"/>
<polygon fill="black" stroke="black" points="877.52,-133.3 867.52,-136.8 877.52,-140.3 877.52,-133.3"/>
</g>
<!-- CardComponent -->
<g id="node2" class="node">
<title>CardComponent</title>
<polygon fill="#ffffb3" stroke="black" points="1514.05,-84.8 1405.95,-84.8 1405.95,-48.8 1514.05,-48.8 1514.05,-84.8"/>
<text text-anchor="middle" x="1460" y="-62.6" font-family="Times,serif" font-size="14.00">CardComponent</text>
</g>
<!-- CardComponent&#45;&gt;ProduitModule -->
<g id="edge2" class="edge">
<title>CardComponent&#45;&gt;ProduitModule</title>
<path fill="none" stroke="black" d="M1460,-84.91C1460,-104.14 1460,-131.8 1460,-131.8 1460,-131.8 877.46,-131.8 877.46,-131.8"/>
<polygon fill="black" stroke="black" points="877.46,-128.3 867.46,-131.8 877.46,-135.3 877.46,-128.3"/>
</g>
<!-- CatalogueComponent -->
<g id="node3" class="node">
<title>CatalogueComponent</title>
<polygon fill="#ffffb3" stroke="black" points="1388.09,-84.8 1249.91,-84.8 1249.91,-48.8 1388.09,-48.8 1388.09,-84.8"/>
<text text-anchor="middle" x="1319" y="-62.6" font-family="Times,serif" font-size="14.00">CatalogueComponent</text>
</g>
<!-- CatalogueComponent&#45;&gt;ProduitModule -->
<g id="edge3" class="edge">
<title>CatalogueComponent&#45;&gt;ProduitModule</title>
<path fill="none" stroke="black" d="M1319,-85.1C1319,-103.07 1319,-127.8 1319,-127.8 1319,-127.8 877.43,-127.8 877.43,-127.8"/>
<polygon fill="black" stroke="black" points="877.43,-124.3 867.43,-127.8 877.43,-131.3 877.43,-124.3"/>
</g>
<!-- ChoixBoissonComponent -->
<g id="node4" class="node">
<title>ChoixBoissonComponent</title>
<polygon fill="#ffffb3" stroke="black" points="1232.18,-84.8 1071.82,-84.8 1071.82,-48.8 1232.18,-48.8 1232.18,-84.8"/>
<text text-anchor="middle" x="1152" y="-62.6" font-family="Times,serif" font-size="14.00">ChoixBoissonComponent</text>
</g>
<!-- ChoixBoissonComponent&#45;&gt;ProduitModule -->
<g id="edge4" class="edge">
<title>ChoixBoissonComponent&#45;&gt;ProduitModule</title>
<path fill="none" stroke="black" d="M1180.53,-84.83C1180.53,-101.2 1180.53,-122.8 1180.53,-122.8 1180.53,-122.8 877.55,-122.8 877.55,-122.8"/>
<polygon fill="black" stroke="black" points="877.55,-119.3 867.55,-122.8 877.55,-126.3 877.55,-119.3"/>
</g>
<!-- ComplementComponent -->
<g id="node5" class="node">
<title>ComplementComponent</title>
<polygon fill="#ffffb3" stroke="black" points="1053.66,-84.8 900.34,-84.8 900.34,-48.8 1053.66,-48.8 1053.66,-84.8"/>
<text text-anchor="middle" x="977" y="-62.6" font-family="Times,serif" font-size="14.00">ComplementComponent</text>
</g>
<!-- ComplementComponent&#45;&gt;ProduitModule -->
<g id="edge5" class="edge">
<title>ComplementComponent&#45;&gt;ProduitModule</title>
<path fill="none" stroke="black" d="M1003.03,-84.99C1003.03,-99.98 1003.03,-118.8 1003.03,-118.8 1003.03,-118.8 877.34,-118.8 877.34,-118.8"/>
<polygon fill="black" stroke="black" points="877.34,-115.3 867.34,-118.8 877.34,-122.3 877.34,-115.3"/>
</g>
<!-- CompterComponent -->
<g id="node6" class="node">
<title>CompterComponent</title>
<polygon fill="#ffffb3" stroke="black" points="882.32,-84.8 751.68,-84.8 751.68,-48.8 882.32,-48.8 882.32,-84.8"/>
<text text-anchor="middle" x="817" y="-62.6" font-family="Times,serif" font-size="14.00">CompterComponent</text>
</g>
<!-- CompterComponent&#45;&gt;ProduitModule -->
<g id="edge6" class="edge">
<title>CompterComponent&#45;&gt;ProduitModule</title>
<path fill="none" stroke="black" d="M817,-84.91C817,-84.91 817,-103.79 817,-103.79"/>
<polygon fill="black" stroke="black" points="813.5,-103.79 817,-113.79 820.5,-103.79 813.5,-103.79"/>
</g>
<!-- DetailComponent -->
<g id="node7" class="node">
<title>DetailComponent</title>
<polygon fill="#ffffb3" stroke="black" points="733.54,-84.8 618.46,-84.8 618.46,-48.8 733.54,-48.8 733.54,-84.8"/>
<text text-anchor="middle" x="676" y="-62.6" font-family="Times,serif" font-size="14.00">DetailComponent</text>
</g>
<!-- DetailComponent&#45;&gt;ProduitModule -->
<g id="edge7" class="edge">
<title>DetailComponent&#45;&gt;ProduitModule</title>
<path fill="none" stroke="black" d="M694.42,-84.99C694.42,-99.98 694.42,-118.8 694.42,-118.8 694.42,-118.8 756.44,-118.8 756.44,-118.8"/>
<polygon fill="black" stroke="black" points="756.44,-122.3 766.44,-118.8 756.44,-115.3 756.44,-122.3"/>
</g>
<!-- DetailMenuComponent -->
<g id="node8" class="node">
<title>DetailMenuComponent</title>
<polygon fill="#ffffb3" stroke="black" points="600.2,-84.8 451.8,-84.8 451.8,-48.8 600.2,-48.8 600.2,-84.8"/>
<text text-anchor="middle" x="526" y="-62.6" font-family="Times,serif" font-size="14.00">DetailMenuComponent</text>
</g>
<!-- DetailMenuComponent&#45;&gt;ProduitModule -->
<g id="edge8" class="edge">
<title>DetailMenuComponent&#45;&gt;ProduitModule</title>
<path fill="none" stroke="black" d="M547.87,-84.83C547.87,-101.2 547.87,-122.8 547.87,-122.8 547.87,-122.8 756.69,-122.8 756.69,-122.8"/>
<polygon fill="black" stroke="black" points="756.69,-126.3 766.69,-122.8 756.69,-119.3 756.69,-126.3"/>
</g>
<!-- ProduitComponent -->
<g id="node9" class="node">
<title>ProduitComponent</title>
<polygon fill="#ffffb3" stroke="black" points="434.06,-84.8 311.94,-84.8 311.94,-48.8 434.06,-48.8 434.06,-84.8"/>
<text text-anchor="middle" x="373" y="-62.6" font-family="Times,serif" font-size="14.00">ProduitComponent</text>
</g>
<!-- ProduitComponent&#45;&gt;ProduitModule -->
<g id="edge9" class="edge">
<title>ProduitComponent&#45;&gt;ProduitModule</title>
<path fill="none" stroke="black" d="M373,-85.1C373,-103.07 373,-127.8 373,-127.8 373,-127.8 756.5,-127.8 756.5,-127.8"/>
<polygon fill="black" stroke="black" points="756.5,-131.3 766.5,-127.8 756.5,-124.3 756.5,-131.3"/>
</g>
<!-- ChoixBoissonComponent  -->
<g id="node13" class="node">
<title>ChoixBoissonComponent </title>
<polygon fill="#fb8072" stroke="black" points="1241.18,-214.8 1076.82,-214.8 1076.82,-178.8 1241.18,-178.8 1241.18,-214.8"/>
<text text-anchor="middle" x="1159" y="-192.6" font-family="Times,serif" font-size="14.00">ChoixBoissonComponent </text>
</g>
<!-- ProduitModule&#45;&gt;ChoixBoissonComponent  -->
<g id="edge12" class="edge">
<title>ProduitModule&#45;&gt;ChoixBoissonComponent </title>
<path fill="none" stroke="black" stroke-dasharray="5,2" d="M867.43,-140.8C955.65,-140.8 1128.72,-140.8 1128.72,-140.8 1128.72,-140.8 1128.72,-168.77 1128.72,-168.77"/>
<polygon fill="black" stroke="black" points="1125.22,-168.77 1128.72,-178.77 1132.22,-168.77 1125.22,-168.77"/>
</g>
<!-- ComplementComponent  -->
<g id="node14" class="node">
<title>ComplementComponent </title>
<polygon fill="#fb8072" stroke="black" points="1058.66,-214.8 901.34,-214.8 901.34,-178.8 1058.66,-178.8 1058.66,-214.8"/>
<text text-anchor="middle" x="980" y="-192.6" font-family="Times,serif" font-size="14.00">ComplementComponent </text>
</g>
<!-- ProduitModule&#45;&gt;ComplementComponent  -->
<g id="edge13" class="edge">
<title>ProduitModule&#45;&gt;ComplementComponent </title>
<path fill="none" stroke="black" stroke-dasharray="5,2" d="M867.35,-145.8C905.8,-145.8 952.22,-145.8 952.22,-145.8 952.22,-145.8 952.22,-168.68 952.22,-168.68"/>
<polygon fill="black" stroke="black" points="948.72,-168.68 952.22,-178.68 955.72,-168.68 948.72,-168.68"/>
</g>
<!-- CompterComponent  -->
<g id="node15" class="node">
<title>CompterComponent </title>
<polygon fill="#fb8072" stroke="black" points="883.82,-214.8 750.18,-214.8 750.18,-178.8 883.82,-178.8 883.82,-214.8"/>
<text text-anchor="middle" x="817" y="-192.6" font-family="Times,serif" font-size="14.00">CompterComponent </text>
</g>
<!-- ProduitModule&#45;&gt;CompterComponent  -->
<g id="edge14" class="edge">
<title>ProduitModule&#45;&gt;CompterComponent </title>
<path fill="none" stroke="black" stroke-dasharray="5,2" d="M817,-149.91C817,-149.91 817,-168.79 817,-168.79"/>
<polygon fill="black" stroke="black" points="813.5,-168.79 817,-178.79 820.5,-168.79 813.5,-168.79"/>
</g>
<!-- DetailComponent  -->
<g id="node16" class="node">
<title>DetailComponent </title>
<polygon fill="#fb8072" stroke="black" points="732.54,-214.8 613.46,-214.8 613.46,-178.8 732.54,-178.8 732.54,-214.8"/>
<text text-anchor="middle" x="673" y="-192.6" font-family="Times,serif" font-size="14.00">DetailComponent </text>
</g>
<!-- ProduitModule&#45;&gt;DetailComponent  -->
<g id="edge15" class="edge">
<title>ProduitModule&#45;&gt;DetailComponent </title>
<path fill="none" stroke="black" stroke-dasharray="5,2" d="M766.6,-145.8C719.48,-145.8 656.33,-145.8 656.33,-145.8 656.33,-145.8 656.33,-168.68 656.33,-168.68"/>
<polygon fill="black" stroke="black" points="652.83,-168.68 656.33,-178.68 659.83,-168.68 652.83,-168.68"/>
</g>
<!-- DetailMenuComponent  -->
<g id="node17" class="node">
<title>DetailMenuComponent </title>
<polygon fill="#fb8072" stroke="black" points="595.7,-214.8 444.3,-214.8 444.3,-178.8 595.7,-178.8 595.7,-214.8"/>
<text text-anchor="middle" x="520" y="-192.6" font-family="Times,serif" font-size="14.00">DetailMenuComponent </text>
</g>
<!-- ProduitModule&#45;&gt;DetailMenuComponent  -->
<g id="edge16" class="edge">
<title>ProduitModule&#45;&gt;DetailMenuComponent </title>
<path fill="none" stroke="black" stroke-dasharray="5,2" d="M766.4,-140.8C676.87,-140.8 499.88,-140.8 499.88,-140.8 499.88,-140.8 499.88,-168.77 499.88,-168.77"/>
<polygon fill="black" stroke="black" points="496.38,-168.77 499.88,-178.77 503.38,-168.77 496.38,-168.77"/>
</g>
<!-- LayoutModule -->
<g id="node11" class="node">
<title>LayoutModule</title>
<polygon fill="#8dd3c7" stroke="black" points="287.71,-84.8 284.71,-88.8 263.71,-88.8 260.71,-84.8 188.29,-84.8 188.29,-48.8 287.71,-48.8 287.71,-84.8"/>
<text text-anchor="middle" x="238" y="-62.6" font-family="Times,serif" font-size="14.00">LayoutModule</text>
</g>
<!-- LayoutModule&#45;&gt;ProduitModule -->
<g id="edge10" class="edge">
<title>LayoutModule&#45;&gt;ProduitModule</title>
<path fill="none" stroke="black" d="M238,-84.91C238,-104.14 238,-131.8 238,-131.8 238,-131.8 756.63,-131.8 756.63,-131.8"/>
<polygon fill="black" stroke="black" points="756.63,-135.3 766.63,-131.8 756.63,-128.3 756.63,-135.3"/>
</g>
<!-- ProduitRoutingModule -->
<g id="node12" class="node">
<title>ProduitRoutingModule</title>
<polygon fill="#8dd3c7" stroke="black" points="169.9,-84.8 166.9,-88.8 145.9,-88.8 142.9,-84.8 24.1,-84.8 24.1,-48.8 169.9,-48.8 169.9,-84.8"/>
<text text-anchor="middle" x="97" y="-62.6" font-family="Times,serif" font-size="14.00">ProduitRoutingModule</text>
</g>
<!-- ProduitRoutingModule&#45;&gt;ProduitModule -->
<g id="edge11" class="edge">
<title>ProduitRoutingModule&#45;&gt;ProduitModule</title>
<path fill="none" stroke="black" d="M97,-84.83C97,-105.57 97,-136.8 97,-136.8 97,-136.8 756.66,-136.8 756.66,-136.8"/>
<polygon fill="black" stroke="black" points="756.66,-140.3 766.66,-136.8 756.66,-133.3 756.66,-140.3"/>
</g>
</g>
</svg>
