<?xml version="1.0" encoding="UTF-8" standalone="no"?>
<!DOCTYPE svg PUBLIC "-//W3C//DTD SVG 1.1//EN"
 "http://www.w3.org/Graphics/SVG/1.1/DTD/svg11.dtd">
<!-- Generated by graphviz version 5.0.0 (20220707.1540)
 -->
<!-- Title: dependencies Pages: 1 -->
<svg width="588pt" height="247pt"
 viewBox="0.00 0.00 588.00 246.80" xmlns="http://www.w3.org/2000/svg" xmlns:xlink="http://www.w3.org/1999/xlink">
<g id="graph0" class="graph" transform="scale(1 1) rotate(0) translate(4 242.8)">
<title>dependencies</title>
<polygon fill="white" stroke="transparent" points="-4,4 -4,-242.8 584,-242.8 584,4 -4,4"/>
<text text-anchor="middle" x="290" y="-8.2" font-family="sans-serif" font-size="14.00">dependencies</text>
<g id="clust1" class="cluster">
<title>cluster_AppModule</title>
<polygon fill="none" stroke="black" stroke-dasharray="1,5" points="8,-32.8 8,-230.8 572,-230.8 572,-32.8 8,-32.8"/>
</g>
<g id="clust5" class="cluster">
<title>cluster_AppModule_imports</title>
<polygon fill="none" stroke="black" points="302,-40.8 302,-92.8 564,-92.8 564,-40.8 302,-40.8"/>
</g>
<g id="clust7" class="cluster">
<title>cluster_AppModule_bootstrap</title>
<polygon fill="none" stroke="black" points="234,-170.8 234,-222.8 358,-222.8 358,-170.8 234,-170.8"/>
</g>
<g id="clust2" class="cluster">
<title>cluster_AppModule_declarations</title>
<polygon fill="none" stroke="black" points="16,-40.8 16,-92.8 294,-92.8 294,-40.8 16,-40.8"/>
</g>
<!-- AppComponent -->
<g id="node1" class="node">
<title>AppComponent</title>
<polygon fill="#ffffb3" stroke="black" points="285.94,-84.8 180.06,-84.8 180.06,-48.8 285.94,-48.8 285.94,-84.8"/>
<text text-anchor="middle" x="233" y="-62.6" font-family="Times,serif" font-size="14.00">AppComponent</text>
</g>
<!-- AppModule -->
<g id="node3" class="node">
<title>AppModule</title>
<polygon fill="#8dd3c7" stroke="black" points="337.66,-149.8 334.66,-153.8 313.66,-153.8 310.66,-149.8 254.34,-149.8 254.34,-113.8 337.66,-113.8 337.66,-149.8"/>
<text text-anchor="middle" x="296" y="-127.6" font-family="Times,serif" font-size="14.00">AppModule</text>
</g>
<!-- AppComponent&#45;&gt;AppModule -->
<g id="edge1" class="edge">
<title>AppComponent&#45;&gt;AppModule</title>
<path fill="none" stroke="black" d="M269.94,-84.91C269.94,-84.91 269.94,-103.79 269.94,-103.79"/>
<polygon fill="black" stroke="black" points="266.44,-103.79 269.94,-113.79 273.44,-103.79 266.44,-103.79"/>
</g>
<!-- NotFoundComponent -->
<g id="node2" class="node">
<title>NotFoundComponent</title>
<polygon fill="#ffffb3" stroke="black" points="162.12,-84.8 23.88,-84.8 23.88,-48.8 162.12,-48.8 162.12,-84.8"/>
<text text-anchor="middle" x="93" y="-62.6" font-family="Times,serif" font-size="14.00">NotFoundComponent</text>
</g>
<!-- NotFoundComponent&#45;&gt;AppModule -->
<g id="edge2" class="edge">
<title>NotFoundComponent&#45;&gt;AppModule</title>
<path fill="none" stroke="black" d="M93,-84.91C93,-104.14 93,-131.8 93,-131.8 93,-131.8 243.94,-131.8 243.94,-131.8"/>
<polygon fill="black" stroke="black" points="243.94,-135.3 253.94,-131.8 243.94,-128.3 243.94,-135.3"/>
</g>
<!-- AppComponent  -->
<g id="node6" class="node">
<title>AppComponent </title>
<polygon fill="#80b1d3" stroke="black" points="350.44,-214.8 241.56,-214.8 241.56,-178.8 350.44,-178.8 350.44,-214.8"/>
<text text-anchor="middle" x="296" y="-192.6" font-family="Times,serif" font-size="14.00">AppComponent </text>
</g>
<!-- AppModule&#45;&gt;AppComponent  -->
<g id="edge5" class="edge">
<title>AppModule&#45;&gt;AppComponent </title>
<path fill="none" stroke="black" stroke-dasharray="1,5" d="M296,-149.91C296,-149.91 296,-168.79 296,-168.79"/>
<polygon fill="black" stroke="black" points="292.5,-168.79 296,-178.79 299.5,-168.79 292.5,-168.79"/>
</g>
<!-- AppRoutingModule -->
<g id="node4" class="node">
<title>AppRoutingModule</title>
<polygon fill="#8dd3c7" stroke="black" points="556.28,-84.8 553.28,-88.8 532.28,-88.8 529.28,-84.8 427.72,-84.8 427.72,-48.8 556.28,-48.8 556.28,-84.8"/>
<text text-anchor="middle" x="492" y="-62.6" font-family="Times,serif" font-size="14.00">AppRoutingModule</text>
</g>
<!-- AppRoutingModule&#45;&gt;AppModule -->
<g id="edge3" class="edge">
<title>AppRoutingModule&#45;&gt;AppModule</title>
<path fill="none" stroke="black" d="M492,-84.91C492,-104.14 492,-131.8 492,-131.8 492,-131.8 348.05,-131.8 348.05,-131.8"/>
<polygon fill="black" stroke="black" points="348.05,-128.3 338.05,-131.8 348.05,-135.3 348.05,-128.3"/>
</g>
<!-- LayoutModule -->
<g id="node5" class="node">
<title>LayoutModule</title>
<polygon fill="#8dd3c7" stroke="black" points="409.71,-84.8 406.71,-88.8 385.71,-88.8 382.71,-84.8 310.29,-84.8 310.29,-48.8 409.71,-48.8 409.71,-84.8"/>
<text text-anchor="middle" x="360" y="-62.6" font-family="Times,serif" font-size="14.00">LayoutModule</text>
</g>
<!-- LayoutModule&#45;&gt;AppModule -->
<g id="edge4" class="edge">
<title>LayoutModule&#45;&gt;AppModule</title>
<path fill="none" stroke="black" d="M324.11,-84.91C324.11,-84.91 324.11,-103.79 324.11,-103.79"/>
<polygon fill="black" stroke="black" points="320.61,-103.79 324.11,-113.79 327.61,-103.79 320.61,-103.79"/>
</g>
</g>
</svg>
