<?xml version="1.0" encoding="UTF-8" standalone="no"?>
<!DOCTYPE svg PUBLIC "-//W3C//DTD SVG 1.1//EN"
 "http://www.w3.org/Graphics/SVG/1.1/DTD/svg11.dtd">
<!-- Generated by graphviz version 5.0.0 (20220707.1540)
 -->
<!-- Title: dependencies Pages: 1 -->
<svg width="826pt" height="247pt"
 viewBox="0.00 0.00 826.00 246.80" xmlns="http://www.w3.org/2000/svg" xmlns:xlink="http://www.w3.org/1999/xlink">
<g id="graph0" class="graph" transform="scale(1 1) rotate(0) translate(4 242.8)">
<title>dependencies</title>
<polygon fill="white" stroke="transparent" points="-4,4 -4,-242.8 822,-242.8 822,4 -4,4"/>
<text text-anchor="middle" x="409" y="-8.2" font-family="sans-serif" font-size="14.00">dependencies</text>
<g id="clust1" class="cluster">
<title>cluster_AppModule</title>
<polygon fill="none" stroke="black" stroke-dasharray="1,5" points="8,-32.8 8,-230.8 810,-230.8 810,-32.8 8,-32.8"/>
</g>
<g id="clust2" class="cluster">
<title>cluster_AppModule_declarations</title>
<polygon fill="none" stroke="black" points="524,-40.8 524,-92.8 802,-92.8 802,-40.8 524,-40.8"/>
</g>
<g id="clust8" class="cluster">
<title>cluster_AppModule_providers</title>
<polygon fill="none" stroke="black" points="286,-40.8 286,-92.8 516,-92.8 516,-40.8 286,-40.8"/>
</g>
<g id="clust7" class="cluster">
<title>cluster_AppModule_bootstrap</title>
<polygon fill="none" stroke="black" points="339,-170.8 339,-222.8 463,-222.8 463,-170.8 339,-170.8"/>
</g>
<g id="clust5" class="cluster">
<title>cluster_AppModule_imports</title>
<polygon fill="none" stroke="black" points="16,-40.8 16,-92.8 278,-92.8 278,-40.8 16,-40.8"/>
</g>
<!-- AppComponent -->
<g id="node1" class="node">
<title>AppComponent</title>
<polygon fill="#ffffb3" stroke="black" points="793.94,-84.8 688.06,-84.8 688.06,-48.8 793.94,-48.8 793.94,-84.8"/>
<text text-anchor="middle" x="741" y="-62.6" font-family="Times,serif" font-size="14.00">AppComponent</text>
</g>
<!-- AppModule -->
<g id="node3" class="node">
<title>AppModule</title>
<polygon fill="#8dd3c7" stroke="black" points="442.66,-149.8 439.66,-153.8 418.66,-153.8 415.66,-149.8 359.34,-149.8 359.34,-113.8 442.66,-113.8 442.66,-149.8"/>
<text text-anchor="middle" x="401" y="-127.6" font-family="Times,serif" font-size="14.00">AppModule</text>
</g>
<!-- AppComponent&#45;&gt;AppModule -->
<g id="edge1" class="edge">
<title>AppComponent&#45;&gt;AppModule</title>
<path fill="none" stroke="black" d="M741,-85.08C741,-106.12 741,-137.8 741,-137.8 741,-137.8 452.69,-137.8 452.69,-137.8"/>
<polygon fill="black" stroke="black" points="452.69,-134.3 442.69,-137.8 452.69,-141.3 452.69,-134.3"/>
</g>
<!-- NotFoundComponent -->
<g id="node2" class="node">
<title>NotFoundComponent</title>
<polygon fill="#ffffb3" stroke="black" points="670.12,-84.8 531.88,-84.8 531.88,-48.8 670.12,-48.8 670.12,-84.8"/>
<text text-anchor="middle" x="601" y="-62.6" font-family="Times,serif" font-size="14.00">NotFoundComponent</text>
</g>
<!-- NotFoundComponent&#45;&gt;AppModule -->
<g id="edge2" class="edge">
<title>NotFoundComponent&#45;&gt;AppModule</title>
<path fill="none" stroke="black" d="M601,-84.82C601,-102.17 601,-125.8 601,-125.8 601,-125.8 452.93,-125.8 452.93,-125.8"/>
<polygon fill="black" stroke="black" points="452.93,-122.3 442.93,-125.8 452.93,-129.3 452.93,-122.3"/>
</g>
<!-- AppComponent  -->
<g id="node6" class="node">
<title>AppComponent </title>
<polygon fill="#80b1d3" stroke="black" points="455.44,-214.8 346.56,-214.8 346.56,-178.8 455.44,-178.8 455.44,-214.8"/>
<text text-anchor="middle" x="401" y="-192.6" font-family="Times,serif" font-size="14.00">AppComponent </text>
</g>
<!-- AppModule&#45;&gt;AppComponent  -->
<g id="edge5" class="edge">
<title>AppModule&#45;&gt;AppComponent </title>
<path fill="none" stroke="black" stroke-dasharray="1,5" d="M401,-149.91C401,-149.91 401,-168.79 401,-168.79"/>
<polygon fill="black" stroke="black" points="397.5,-168.79 401,-178.79 404.5,-168.79 397.5,-168.79"/>
</g>
<!-- AppRoutingModule -->
<g id="node4" class="node">
<title>AppRoutingModule</title>
<polygon fill="#8dd3c7" stroke="black" points="270.28,-84.8 267.28,-88.8 246.28,-88.8 243.28,-84.8 141.72,-84.8 141.72,-48.8 270.28,-48.8 270.28,-84.8"/>
<text text-anchor="middle" x="206" y="-62.6" font-family="Times,serif" font-size="14.00">AppRoutingModule</text>
</g>
<!-- AppRoutingModule&#45;&gt;AppModule -->
<g id="edge3" class="edge">
<title>AppRoutingModule&#45;&gt;AppModule</title>
<path fill="none" stroke="black" d="M206,-84.82C206,-102.17 206,-125.8 206,-125.8 206,-125.8 349.17,-125.8 349.17,-125.8"/>
<polygon fill="black" stroke="black" points="349.17,-129.3 359.17,-125.8 349.17,-122.3 349.17,-129.3"/>
</g>
<!-- LayoutModule -->
<g id="node5" class="node">
<title>LayoutModule</title>
<polygon fill="#8dd3c7" stroke="black" points="123.71,-84.8 120.71,-88.8 99.71,-88.8 96.71,-84.8 24.29,-84.8 24.29,-48.8 123.71,-48.8 123.71,-84.8"/>
<text text-anchor="middle" x="74" y="-62.6" font-family="Times,serif" font-size="14.00">LayoutModule</text>
</g>
<!-- LayoutModule&#45;&gt;AppModule -->
<g id="edge4" class="edge">
<title>LayoutModule&#45;&gt;AppModule</title>
<path fill="none" stroke="black" d="M74,-85.08C74,-106.12 74,-137.8 74,-137.8 74,-137.8 349.25,-137.8 349.25,-137.8"/>
<polygon fill="black" stroke="black" points="349.25,-141.3 359.25,-137.8 349.25,-134.3 349.25,-141.3"/>
</g>
<!-- TokenInterceptorService -->
<g id="node7" class="node">
<title>TokenInterceptorService</title>
<ellipse fill="#fdb462" stroke="black" cx="401" cy="-66.8" rx="107.04" ry="18"/>
<text text-anchor="middle" x="401" y="-62.6" font-family="Times,serif" font-size="14.00">TokenInterceptorService</text>
</g>
<!-- TokenInterceptorService&#45;&gt;AppModule -->
<g id="edge6" class="edge">
<title>TokenInterceptorService&#45;&gt;AppModule</title>
<path fill="none" stroke="black" d="M401,-84.91C401,-84.91 401,-103.79 401,-103.79"/>
<polygon fill="black" stroke="black" points="397.5,-103.79 401,-113.79 404.5,-103.79 397.5,-103.79"/>
</g>
</g>
</svg>
