<?xml version="1.0" encoding="UTF-8" standalone="no"?>
<!DOCTYPE svg PUBLIC "-//W3C//DTD SVG 1.1//EN"
 "http://www.w3.org/Graphics/SVG/1.1/DTD/svg11.dtd">
<!-- Generated by graphviz version 5.0.0 (20220707.1540)
 -->
<!-- Title: dependencies Pages: 1 -->
<svg width="321pt" height="247pt"
 viewBox="0.00 0.00 321.00 246.80" xmlns="http://www.w3.org/2000/svg" xmlns:xlink="http://www.w3.org/1999/xlink">
<g id="graph0" class="graph" transform="scale(1 1) rotate(0) translate(4 242.8)">
<title>dependencies</title>
<polygon fill="white" stroke="transparent" points="-4,4 -4,-242.8 317,-242.8 317,4 -4,4"/>
<text text-anchor="middle" x="156.5" y="-8.2" font-family="sans-serif" font-size="14.00">dependencies</text>
<g id="clust1" class="cluster">
<title>cluster_LayoutModule</title>
<polygon fill="none" stroke="black" stroke-dasharray="1,5" points="8,-32.8 8,-230.8 305,-230.8 305,-32.8 8,-32.8"/>
</g>
<g id="clust6" class="cluster">
<title>cluster_LayoutModule_exports</title>
<polygon fill="none" stroke="black" points="16,-170.8 16,-222.8 297,-222.8 297,-170.8 16,-170.8"/>
</g>
<g id="clust2" class="cluster">
<title>cluster_LayoutModule_declarations</title>
<polygon fill="none" stroke="black" points="20,-40.8 20,-92.8 294,-92.8 294,-40.8 20,-40.8"/>
</g>
<!-- FooterComponent -->
<g id="node1" class="node">
<title>FooterComponent</title>
<polygon fill="#ffffb3" stroke="black" points="285.88,-84.8 168.12,-84.8 168.12,-48.8 285.88,-48.8 285.88,-84.8"/>
<text text-anchor="middle" x="227" y="-62.6" font-family="Times,serif" font-size="14.00">FooterComponent</text>
</g>
<!-- LayoutModule -->
<g id="node3" class="node">
<title>LayoutModule</title>
<polygon fill="#8dd3c7" stroke="black" points="139.71,-149.8 136.71,-153.8 115.71,-153.8 112.71,-149.8 40.29,-149.8 40.29,-113.8 139.71,-113.8 139.71,-149.8"/>
<text text-anchor="middle" x="90" y="-127.6" font-family="Times,serif" font-size="14.00">LayoutModule</text>
</g>
<!-- FooterComponent&#45;&gt;LayoutModule -->
<g id="edge1" class="edge">
<title>FooterComponent&#45;&gt;LayoutModule</title>
<path fill="none" stroke="black" d="M246.65,-84.82C246.65,-102.17 246.65,-125.8 246.65,-125.8 246.65,-125.8 149.99,-125.8 149.99,-125.8"/>
<polygon fill="black" stroke="black" points="149.99,-122.3 139.99,-125.8 149.99,-129.3 149.99,-122.3"/>
</g>
<!-- HeaderComponent -->
<g id="node2" class="node">
<title>HeaderComponent</title>
<polygon fill="#ffffb3" stroke="black" points="149.75,-84.8 28.25,-84.8 28.25,-48.8 149.75,-48.8 149.75,-84.8"/>
<text text-anchor="middle" x="89" y="-62.6" font-family="Times,serif" font-size="14.00">HeaderComponent</text>
</g>
<!-- HeaderComponent&#45;&gt;LayoutModule -->
<g id="edge2" class="edge">
<title>HeaderComponent&#45;&gt;LayoutModule</title>
<path fill="none" stroke="black" d="M90,-84.91C90,-84.91 90,-103.79 90,-103.79"/>
<polygon fill="black" stroke="black" points="86.5,-103.79 90,-113.79 93.5,-103.79 86.5,-103.79"/>
</g>
<!-- FooterComponent  -->
<g id="node4" class="node">
<title>FooterComponent </title>
<polygon fill="#fb8072" stroke="black" points="288.88,-214.8 167.12,-214.8 167.12,-178.8 288.88,-178.8 288.88,-214.8"/>
<text text-anchor="middle" x="228" y="-192.6" font-family="Times,serif" font-size="14.00">FooterComponent </text>
</g>
<!-- LayoutModule&#45;&gt;FooterComponent  -->
<g id="edge3" class="edge">
<title>LayoutModule&#45;&gt;FooterComponent </title>
<path fill="none" stroke="black" stroke-dasharray="5,2" d="M139.77,-137.8C171.75,-137.8 207.35,-137.8 207.35,-137.8 207.35,-137.8 207.35,-168.78 207.35,-168.78"/>
<polygon fill="black" stroke="black" points="203.85,-168.78 207.35,-178.78 210.85,-168.78 203.85,-168.78"/>
</g>
<!-- HeaderComponent  -->
<g id="node5" class="node">
<title>HeaderComponent </title>
<polygon fill="#fb8072" stroke="black" points="149.75,-214.8 24.25,-214.8 24.25,-178.8 149.75,-178.8 149.75,-214.8"/>
<text text-anchor="middle" x="87" y="-192.6" font-family="Times,serif" font-size="14.00">HeaderComponent </text>
</g>
<!-- LayoutModule&#45;&gt;HeaderComponent  -->
<g id="edge4" class="edge">
<title>LayoutModule&#45;&gt;HeaderComponent </title>
<path fill="none" stroke="black" stroke-dasharray="5,2" d="M90,-149.91C90,-149.91 90,-168.79 90,-168.79"/>
<polygon fill="black" stroke="black" points="86.5,-168.79 90,-178.79 93.5,-168.79 86.5,-168.79"/>
</g>
</g>
</svg>
