<?xml version="1.0" encoding="UTF-8" standalone="no"?>
<!DOCTYPE svg PUBLIC "-//W3C//DTD SVG 1.1//EN"
 "http://www.w3.org/Graphics/SVG/1.1/DTD/svg11.dtd">
<!-- Generated by graphviz version 5.0.0 (20220707.1540)
 -->
<!-- Title: dependencies Pages: 1 -->
<svg width="992pt" height="174pt"
 viewBox="0.00 0.00 992.00 173.80" xmlns="http://www.w3.org/2000/svg" xmlns:xlink="http://www.w3.org/1999/xlink">
<g id="graph0" class="graph" transform="scale(1 1) rotate(0) translate(4 169.8)">
<title>dependencies</title>
<polygon fill="white" stroke="transparent" points="-4,4 -4,-169.8 988,-169.8 988,4 -4,4"/>
<text text-anchor="middle" x="492" y="-8.2" font-family="sans-serif" font-size="14.00">dependencies</text>
<g id="clust1" class="cluster">
<title>cluster_GestionnaireModule</title>
<polygon fill="none" stroke="black" stroke-dasharray="1,5" points="8,-32.8 8,-157.8 976,-157.8 976,-32.8 8,-32.8"/>
</g>
<g id="clust2" class="cluster">
<title>cluster_GestionnaireModule_declarations</title>
<polygon fill="none" stroke="black" points="334,-40.8 334,-92.8 968,-92.8 968,-40.8 334,-40.8"/>
</g>
<g id="clust7" class="cluster">
<title>cluster_GestionnaireModule_imports</title>
<polygon fill="none" stroke="black" points="16,-40.8 16,-92.8 326,-92.8 326,-40.8 16,-40.8"/>
</g>
<!-- CommandeCLientFilter -->
<g id="node1" class="node">
<title>CommandeCLientFilter</title>
<polygon fill="#ffffb3" stroke="black" points="959.76,-84.8 810.24,-84.8 810.24,-48.8 959.76,-48.8 959.76,-84.8"/>
<text text-anchor="middle" x="885" y="-62.6" font-family="Times,serif" font-size="14.00">CommandeCLientFilter</text>
</g>
<!-- GestionnaireModule -->
<g id="node5" class="node">
<title>GestionnaireModule</title>
<polygon fill="#8dd3c7" stroke="black" points="555.58,-149.8 552.58,-153.8 531.58,-153.8 528.58,-149.8 424.42,-149.8 424.42,-113.8 555.58,-113.8 555.58,-149.8"/>
<text text-anchor="middle" x="490" y="-127.6" font-family="Times,serif" font-size="14.00">GestionnaireModule</text>
</g>
<!-- CommandeCLientFilter&#45;&gt;GestionnaireModule -->
<g id="edge1" class="edge">
<title>CommandeCLientFilter&#45;&gt;GestionnaireModule</title>
<path fill="none" stroke="black" d="M885,-85.08C885,-106.12 885,-137.8 885,-137.8 885,-137.8 565.67,-137.8 565.67,-137.8"/>
<polygon fill="black" stroke="black" points="565.67,-134.3 555.67,-137.8 565.67,-141.3 565.67,-134.3"/>
</g>
<!-- CommandeDateFilter -->
<g id="node2" class="node">
<title>CommandeDateFilter</title>
<polygon fill="#ffffb3" stroke="black" points="791.8,-84.8 654.2,-84.8 654.2,-48.8 791.8,-48.8 791.8,-84.8"/>
<text text-anchor="middle" x="723" y="-62.6" font-family="Times,serif" font-size="14.00">CommandeDateFilter</text>
</g>
<!-- CommandeDateFilter&#45;&gt;GestionnaireModule -->
<g id="edge2" class="edge">
<title>CommandeDateFilter&#45;&gt;GestionnaireModule</title>
<path fill="none" stroke="black" d="M723,-84.82C723,-102.17 723,-125.8 723,-125.8 723,-125.8 565.83,-125.8 565.83,-125.8"/>
<polygon fill="black" stroke="black" points="565.83,-122.3 555.83,-125.8 565.83,-129.3 565.83,-122.3"/>
</g>
<!-- CommandeFilterPipe -->
<g id="node3" class="node">
<title>CommandeFilterPipe</title>
<polygon fill="#ffffb3" stroke="black" points="635.77,-84.8 500.23,-84.8 500.23,-48.8 635.77,-48.8 635.77,-84.8"/>
<text text-anchor="middle" x="568" y="-62.6" font-family="Times,serif" font-size="14.00">CommandeFilterPipe</text>
</g>
<!-- CommandeFilterPipe&#45;&gt;GestionnaireModule -->
<g id="edge3" class="edge">
<title>CommandeFilterPipe&#45;&gt;GestionnaireModule</title>
<path fill="none" stroke="black" d="M527.83,-84.91C527.83,-84.91 527.83,-103.79 527.83,-103.79"/>
<polygon fill="black" stroke="black" points="524.33,-103.79 527.83,-113.79 531.33,-103.79 524.33,-103.79"/>
</g>
<!-- CommandeZoneFilter -->
<g id="node4" class="node">
<title>CommandeZoneFilter</title>
<polygon fill="#ffffb3" stroke="black" points="481.64,-84.8 342.36,-84.8 342.36,-48.8 481.64,-48.8 481.64,-84.8"/>
<text text-anchor="middle" x="412" y="-62.6" font-family="Times,serif" font-size="14.00">CommandeZoneFilter</text>
</g>
<!-- CommandeZoneFilter&#45;&gt;GestionnaireModule -->
<g id="edge4" class="edge">
<title>CommandeZoneFilter&#45;&gt;GestionnaireModule</title>
<path fill="none" stroke="black" d="M453.14,-84.91C453.14,-84.91 453.14,-103.79 453.14,-103.79"/>
<polygon fill="black" stroke="black" points="449.64,-103.79 453.14,-113.79 456.64,-103.79 449.64,-103.79"/>
</g>
<!-- GestionnaireRoutingModule -->
<g id="node6" class="node">
<title>GestionnaireRoutingModule</title>
<polygon fill="#8dd3c7" stroke="black" points="318.2,-84.8 315.2,-88.8 294.2,-88.8 291.2,-84.8 141.8,-84.8 141.8,-48.8 318.2,-48.8 318.2,-84.8"/>
<text text-anchor="middle" x="230" y="-62.6" font-family="Times,serif" font-size="14.00">GestionnaireRoutingModule</text>
</g>
<!-- GestionnaireRoutingModule&#45;&gt;GestionnaireModule -->
<g id="edge5" class="edge">
<title>GestionnaireRoutingModule&#45;&gt;GestionnaireModule</title>
<path fill="none" stroke="black" d="M230,-84.82C230,-102.17 230,-125.8 230,-125.8 230,-125.8 414.39,-125.8 414.39,-125.8"/>
<polygon fill="black" stroke="black" points="414.39,-129.3 424.39,-125.8 414.39,-122.3 414.39,-129.3"/>
</g>
<!-- LayoutModule -->
<g id="node7" class="node">
<title>LayoutModule</title>
<polygon fill="#8dd3c7" stroke="black" points="123.71,-84.8 120.71,-88.8 99.71,-88.8 96.71,-84.8 24.29,-84.8 24.29,-48.8 123.71,-48.8 123.71,-84.8"/>
<text text-anchor="middle" x="74" y="-62.6" font-family="Times,serif" font-size="14.00">LayoutModule</text>
</g>
<!-- LayoutModule&#45;&gt;GestionnaireModule -->
<g id="edge6" class="edge">
<title>LayoutModule&#45;&gt;GestionnaireModule</title>
<path fill="none" stroke="black" d="M74,-85.08C74,-106.12 74,-137.8 74,-137.8 74,-137.8 414.08,-137.8 414.08,-137.8"/>
<polygon fill="black" stroke="black" points="414.08,-141.3 424.08,-137.8 414.08,-134.3 414.08,-141.3"/>
</g>
</g>
</svg>
