<?xml version="1.0" encoding="UTF-8" standalone="no"?>
<!DOCTYPE svg PUBLIC "-//W3C//DTD SVG 1.1//EN"
 "http://www.w3.org/Graphics/SVG/1.1/DTD/svg11.dtd">
<!-- Generated by graphviz version 5.0.0 (20220707.1540)
 -->
<!-- Title: dependencies Pages: 1 -->
<svg width="4107pt" height="329pt"
 viewBox="0.00 0.00 4107.00 328.80" xmlns="http://www.w3.org/2000/svg" xmlns:xlink="http://www.w3.org/1999/xlink">
<g id="graph0" class="graph" transform="scale(1 1) rotate(0) translate(4 324.8)">
<title>dependencies</title>
<polygon fill="white" stroke="transparent" points="-4,4 -4,-324.8 4103,-324.8 4103,4 -4,4"/>
<text text-anchor="middle" x="2049.5" y="-8.2" font-family="sans-serif" font-size="14.00">dependencies</text>
<g id="clust1" class="cluster">
<title>cluster_AppModule</title>
<polygon fill="none" stroke="black" stroke-dasharray="1,5" points="2853,-32.8 2853,-244.8 3417,-244.8 3417,-32.8 2853,-32.8"/>
</g>
<g id="clust2" class="cluster">
<title>cluster_AppModule_declarations</title>
<polygon fill="none" stroke="black" points="3131,-40.8 3131,-92.8 3409,-92.8 3409,-40.8 3131,-40.8"/>
</g>
<g id="clust5" class="cluster">
<title>cluster_AppModule_imports</title>
<polygon fill="none" stroke="black" points="2861,-40.8 2861,-92.8 3123,-92.8 3123,-40.8 2861,-40.8"/>
</g>
<g id="clust7" class="cluster">
<title>cluster_AppModule_bootstrap</title>
<polygon fill="none" stroke="black" points="3067,-184.8 3067,-236.8 3191,-236.8 3191,-184.8 3067,-184.8"/>
</g>
<g id="clust15" class="cluster">
<title>cluster_ClientModule</title>
<polygon fill="none" stroke="black" stroke-dasharray="1,5" points="3425,-32.8 3425,-244.8 3735,-244.8 3735,-32.8 3425,-32.8"/>
</g>
<g id="clust16" class="cluster">
<title>cluster_ClientModule_declarations</title>
<polygon fill="none" stroke="black" points="3595,-40.8 3595,-92.8 3727,-92.8 3727,-40.8 3595,-40.8"/>
</g>
<g id="clust18" class="cluster">
<title>cluster_ClientModule_imports</title>
<polygon fill="none" stroke="black" points="3433,-40.8 3433,-92.8 3587,-92.8 3587,-40.8 3433,-40.8"/>
</g>
<g id="clust19" class="cluster">
<title>cluster_ClientModule_exports</title>
<polygon fill="none" stroke="black" points="3442,-184.8 3442,-236.8 3578,-236.8 3578,-184.8 3442,-184.8"/>
</g>
<g id="clust28" class="cluster">
<title>cluster_CommandeModule</title>
<polygon fill="none" stroke="black" stroke-dasharray="1,5" points="1198,-108.8 1198,-312.8 2236,-312.8 2236,-108.8 1198,-108.8"/>
</g>
<g id="clust29" class="cluster">
<title>cluster_CommandeModule_declarations</title>
<polygon fill="none" stroke="black" points="1518,-116.8 1518,-168.8 2228,-168.8 2228,-116.8 1518,-116.8"/>
</g>
<g id="clust35" class="cluster">
<title>cluster_CommandeModule_imports</title>
<polygon fill="none" stroke="black" points="1206,-116.8 1206,-168.8 1510,-168.8 1510,-116.8 1206,-116.8"/>
</g>
<g id="clust36" class="cluster">
<title>cluster_CommandeModule_exports</title>
<polygon fill="none" stroke="black" points="1583,-252.8 1583,-304.8 2012,-304.8 2012,-252.8 1583,-252.8"/>
</g>
<g id="clust45" class="cluster">
<title>cluster_LayoutModule</title>
<polygon fill="none" stroke="black" stroke-dasharray="1,5" points="2266,-108.8 2266,-176.8 2845,-176.8 2845,-108.8 2266,-108.8"/>
</g>
<g id="clust46" class="cluster">
<title>cluster_LayoutModule_declarations</title>
<polygon fill="none" stroke="black" points="2563,-116.8 2563,-168.8 2837,-168.8 2837,-116.8 2563,-116.8"/>
</g>
<g id="clust50" class="cluster">
<title>cluster_LayoutModule_exports</title>
<polygon fill="none" stroke="black" points="2274,-116.8 2274,-168.8 2555,-168.8 2555,-116.8 2274,-116.8"/>
</g>
<g id="clust53" class="cluster">
<title>cluster_ProduitModule</title>
<polygon fill="none" stroke="black" stroke-dasharray="1,5" points="8,-32.8 8,-100.8 2484,-100.8 2484,-32.8 8,-32.8"/>
</g>
<g id="clust54" class="cluster">
<title>cluster_ProduitModule_declarations</title>
<polygon fill="none" stroke="black" points="1008,-40.8 1008,-92.8 2476,-92.8 2476,-40.8 1008,-40.8"/>
</g>
<g id="clust65" class="cluster">
<title>cluster_ProduitModule_imports</title>
<polygon fill="none" stroke="black" points="838,-40.8 838,-92.8 1000,-92.8 1000,-40.8 838,-40.8"/>
</g>
<g id="clust66" class="cluster">
<title>cluster_ProduitModule_exports</title>
<polygon fill="none" stroke="black" points="16,-40.8 16,-92.8 830,-92.8 830,-40.8 16,-40.8"/>
</g>
<g id="clust75" class="cluster">
<title>cluster_SecuriteModule</title>
<polygon fill="none" stroke="black" stroke-dasharray="1,5" points="3743,-32.8 3743,-244.8 4091,-244.8 4091,-32.8 3743,-32.8"/>
</g>
<g id="clust76" class="cluster">
<title>cluster_SecuriteModule_declarations</title>
<polygon fill="none" stroke="black" points="3925,-40.8 3925,-92.8 4083,-92.8 4083,-40.8 3925,-40.8"/>
</g>
<g id="clust78" class="cluster">
<title>cluster_SecuriteModule_imports</title>
<polygon fill="none" stroke="black" points="3751,-40.8 3751,-92.8 3917,-92.8 3917,-40.8 3751,-40.8"/>
</g>
<g id="clust79" class="cluster">
<title>cluster_SecuriteModule_exports</title>
<polygon fill="none" stroke="black" points="3837,-184.8 3837,-236.8 3999,-236.8 3999,-184.8 3837,-184.8"/>
</g>
<!-- AppComponent -->
<g id="node1" class="node">
<title>AppComponent</title>
<polygon fill="#ffffb3" stroke="black" points="3400.94,-84.8 3295.06,-84.8 3295.06,-48.8 3400.94,-48.8 3400.94,-84.8"/>
<text text-anchor="middle" x="3348" y="-62.6" font-family="Times,serif" font-size="14.00">AppComponent</text>
</g>
<!-- AppModule -->
<g id="node3" class="node">
<title>AppModule</title>
<polygon fill="#8dd3c7" stroke="black" points="3170.66,-160.8 3167.66,-164.8 3146.66,-164.8 3143.66,-160.8 3087.34,-160.8 3087.34,-124.8 3170.66,-124.8 3170.66,-160.8"/>
<text text-anchor="middle" x="3129" y="-138.6" font-family="Times,serif" font-size="14.00">AppModule</text>
</g>
<!-- AppComponent&#45;&gt;AppModule -->
<g id="edge1" class="edge">
<title>AppComponent&#45;&gt;AppModule</title>
<path fill="none" stroke="black" d="M3348,-84.81C3348,-107.29 3348,-142.8 3348,-142.8 3348,-142.8 3180.71,-142.8 3180.71,-142.8"/>
<polygon fill="black" stroke="black" points="3180.71,-139.3 3170.71,-142.8 3180.71,-146.3 3180.71,-139.3"/>
</g>
<!-- NotFoundComponent -->
<g id="node2" class="node">
<title>NotFoundComponent</title>
<polygon fill="#ffffb3" stroke="black" points="3277.12,-84.8 3138.88,-84.8 3138.88,-48.8 3277.12,-48.8 3277.12,-84.8"/>
<text text-anchor="middle" x="3208" y="-62.6" font-family="Times,serif" font-size="14.00">NotFoundComponent</text>
</g>
<!-- NotFoundComponent&#45;&gt;AppModule -->
<g id="edge2" class="edge">
<title>NotFoundComponent&#45;&gt;AppModule</title>
<path fill="none" stroke="black" d="M3154.89,-84.81C3154.89,-84.81 3154.89,-114.65 3154.89,-114.65"/>
<polygon fill="black" stroke="black" points="3151.39,-114.65 3154.89,-124.65 3158.39,-114.65 3151.39,-114.65"/>
</g>
<!-- AppComponent  -->
<g id="node6" class="node">
<title>AppComponent </title>
<polygon fill="#80b1d3" stroke="black" points="3183.44,-228.8 3074.56,-228.8 3074.56,-192.8 3183.44,-192.8 3183.44,-228.8"/>
<text text-anchor="middle" x="3129" y="-206.6" font-family="Times,serif" font-size="14.00">AppComponent </text>
</g>
<!-- AppModule&#45;&gt;AppComponent  -->
<g id="edge5" class="edge">
<title>AppModule&#45;&gt;AppComponent </title>
<path fill="none" stroke="black" stroke-dasharray="1,5" d="M3129,-161.02C3129,-161.02 3129,-182.53 3129,-182.53"/>
<polygon fill="black" stroke="black" points="3125.5,-182.53 3129,-192.53 3132.5,-182.53 3125.5,-182.53"/>
</g>
<!-- AppRoutingModule -->
<g id="node4" class="node">
<title>AppRoutingModule</title>
<polygon fill="#8dd3c7" stroke="black" points="3115.28,-84.8 3112.28,-88.8 3091.28,-88.8 3088.28,-84.8 2986.72,-84.8 2986.72,-48.8 3115.28,-48.8 3115.28,-84.8"/>
<text text-anchor="middle" x="3051" y="-62.6" font-family="Times,serif" font-size="14.00">AppRoutingModule</text>
</g>
<!-- AppRoutingModule&#45;&gt;AppModule -->
<g id="edge3" class="edge">
<title>AppRoutingModule&#45;&gt;AppModule</title>
<path fill="none" stroke="black" d="M3101.28,-84.81C3101.28,-84.81 3101.28,-114.65 3101.28,-114.65"/>
<polygon fill="black" stroke="black" points="3097.78,-114.65 3101.28,-124.65 3104.78,-114.65 3097.78,-114.65"/>
</g>
<!-- LayoutModule -->
<g id="node5" class="node">
<title>LayoutModule</title>
<polygon fill="#8dd3c7" stroke="black" points="2968.71,-84.8 2965.71,-88.8 2944.71,-88.8 2941.71,-84.8 2869.29,-84.8 2869.29,-48.8 2968.71,-48.8 2968.71,-84.8"/>
<text text-anchor="middle" x="2919" y="-62.6" font-family="Times,serif" font-size="14.00">LayoutModule</text>
</g>
<!-- LayoutModule&#45;&gt;AppModule -->
<g id="edge4" class="edge">
<title>LayoutModule&#45;&gt;AppModule</title>
<path fill="none" stroke="black" d="M2954.43,-84.83C2954.43,-105.57 2954.43,-136.8 2954.43,-136.8 2954.43,-136.8 3077.19,-136.8 3077.19,-136.8"/>
<polygon fill="black" stroke="black" points="3077.19,-140.3 3087.19,-136.8 3077.19,-133.3 3077.19,-140.3"/>
</g>
<!-- ClientModule -->
<g id="node8" class="node">
<title>ClientModule</title>
<polygon fill="#8dd3c7" stroke="black" points="3556.77,-160.8 3553.77,-164.8 3532.77,-164.8 3529.77,-160.8 3463.23,-160.8 3463.23,-124.8 3556.77,-124.8 3556.77,-160.8"/>
<text text-anchor="middle" x="3510" y="-138.6" font-family="Times,serif" font-size="14.00">ClientModule</text>
</g>
<!-- LayoutModule&#45;&gt;ClientModule -->
<g id="edge8" class="edge">
<title>LayoutModule&#45;&gt;ClientModule</title>
<path fill="none" stroke="black" d="M2940.26,-84.97C2940.26,-87.25 2940.26,-88.8 2940.26,-88.8 2940.26,-88.8 3494.37,-88.8 3494.37,-88.8 3494.37,-88.8 3494.37,-114.52 3494.37,-114.52"/>
<polygon fill="black" stroke="black" points="3490.87,-114.52 3494.37,-124.52 3497.87,-114.52 3490.87,-114.52"/>
</g>
<!-- CommandeModule -->
<g id="node16" class="node">
<title>CommandeModule</title>
<polygon fill="#8dd3c7" stroke="black" points="1861.1,-228.8 1858.1,-232.8 1837.1,-232.8 1834.1,-228.8 1736.9,-228.8 1736.9,-192.8 1861.1,-192.8 1861.1,-228.8"/>
<text text-anchor="middle" x="1799" y="-206.6" font-family="Times,serif" font-size="14.00">CommandeModule</text>
</g>
<!-- LayoutModule&#45;&gt;CommandeModule -->
<g id="edge16" class="edge">
<title>LayoutModule&#45;&gt;CommandeModule</title>
<path fill="none" stroke="black" d="M2926.09,-84.95C2926.09,-124.47 2926.09,-214.8 2926.09,-214.8 2926.09,-214.8 1871.2,-214.8 1871.2,-214.8"/>
<polygon fill="black" stroke="black" points="1871.2,-211.3 1861.2,-214.8 1871.2,-218.3 1871.2,-211.3"/>
</g>
<!-- ProduitModule -->
<g id="node18" class="node">
<title>ProduitModule</title>
<polygon fill="#8dd3c7" stroke="black" points="1314.28,-160.8 1311.28,-164.8 1290.28,-164.8 1287.28,-160.8 1213.72,-160.8 1213.72,-124.8 1314.28,-124.8 1314.28,-160.8"/>
<text text-anchor="middle" x="1264" y="-138.6" font-family="Times,serif" font-size="14.00">ProduitModule</text>
</g>
<!-- LayoutModule&#45;&gt;ProduitModule -->
<g id="edge35" class="edge">
<title>LayoutModule&#45;&gt;ProduitModule</title>
<path fill="none" stroke="black" d="M2883.57,-84.92C2883.57,-99.58 2883.57,-117.8 2883.57,-117.8 2883.57,-117.8 1309.92,-117.8 1309.92,-117.8 1309.92,-117.8 1309.92,-118.48 1309.92,-118.48"/>
<polygon fill="black" stroke="black" points="1306.42,-114.63 1309.92,-124.63 1313.42,-114.63 1306.42,-114.63"/>
</g>
<!-- FooterComponent  -->
<g id="node24" class="node">
<title>FooterComponent </title>
<polygon fill="#fb8072" stroke="black" points="2403.88,-160.8 2282.12,-160.8 2282.12,-124.8 2403.88,-124.8 2403.88,-160.8"/>
<text text-anchor="middle" x="2343" y="-138.6" font-family="Times,serif" font-size="14.00">FooterComponent </text>
</g>
<!-- LayoutModule&#45;&gt;FooterComponent  -->
<g id="edge23" class="edge">
<title>LayoutModule&#45;&gt;FooterComponent </title>
<path fill="none" stroke="black" stroke-dasharray="5,2" d="M2897.74,-84.81C2897.74,-100.85 2897.74,-121.8 2897.74,-121.8 2897.74,-121.8 2379.11,-121.8 2379.11,-121.8 2379.11,-121.8 2379.11,-122.09 2379.11,-122.09"/>
<polygon fill="black" stroke="black" points="2375.61,-114.72 2379.11,-124.72 2382.61,-114.72 2375.61,-114.72"/>
</g>
<!-- HeaderComponent  -->
<g id="node25" class="node">
<title>HeaderComponent </title>
<polygon fill="#fb8072" stroke="black" points="2546.75,-160.8 2421.25,-160.8 2421.25,-124.8 2546.75,-124.8 2546.75,-160.8"/>
<text text-anchor="middle" x="2484" y="-138.6" font-family="Times,serif" font-size="14.00">HeaderComponent </text>
</g>
<!-- LayoutModule&#45;&gt;HeaderComponent  -->
<g id="edge24" class="edge">
<title>LayoutModule&#45;&gt;HeaderComponent </title>
<path fill="none" stroke="black" stroke-dasharray="5,2" d="M2869.34,-60.8C2759.85,-60.8 2507.33,-60.8 2507.33,-60.8 2507.33,-60.8 2507.33,-114.6 2507.33,-114.6"/>
<polygon fill="black" stroke="black" points="2503.83,-114.6 2507.33,-124.6 2510.83,-114.6 2503.83,-114.6"/>
</g>
<!-- ClientComponent -->
<g id="node7" class="node">
<title>ClientComponent</title>
<polygon fill="#ffffb3" stroke="black" points="3718.55,-84.8 3603.45,-84.8 3603.45,-48.8 3718.55,-48.8 3718.55,-84.8"/>
<text text-anchor="middle" x="3661" y="-62.6" font-family="Times,serif" font-size="14.00">ClientComponent</text>
</g>
<!-- ClientComponent&#45;&gt;ClientModule -->
<g id="edge6" class="edge">
<title>ClientComponent&#45;&gt;ClientModule</title>
<path fill="none" stroke="black" d="M3661,-84.81C3661,-107.29 3661,-142.8 3661,-142.8 3661,-142.8 3566.95,-142.8 3566.95,-142.8"/>
<polygon fill="black" stroke="black" points="3566.95,-139.3 3556.95,-142.8 3566.95,-146.3 3566.95,-139.3"/>
</g>
<!-- ClientComponent  -->
<g id="node10" class="node">
<title>ClientComponent </title>
<polygon fill="#fb8072" stroke="black" points="3569.55,-228.8 3450.45,-228.8 3450.45,-192.8 3569.55,-192.8 3569.55,-228.8"/>
<text text-anchor="middle" x="3510" y="-206.6" font-family="Times,serif" font-size="14.00">ClientComponent </text>
</g>
<!-- ClientModule&#45;&gt;ClientComponent  -->
<g id="edge9" class="edge">
<title>ClientModule&#45;&gt;ClientComponent </title>
<path fill="none" stroke="black" stroke-dasharray="5,2" d="M3510,-161.02C3510,-161.02 3510,-182.53 3510,-182.53"/>
<polygon fill="black" stroke="black" points="3506.5,-182.53 3510,-192.53 3513.5,-182.53 3506.5,-182.53"/>
</g>
<!-- ClientRoutingModule -->
<g id="node9" class="node">
<title>ClientRoutingModule</title>
<polygon fill="#8dd3c7" stroke="black" points="3579.39,-84.8 3576.39,-88.8 3555.39,-88.8 3552.39,-84.8 3440.61,-84.8 3440.61,-48.8 3579.39,-48.8 3579.39,-84.8"/>
<text text-anchor="middle" x="3510" y="-62.6" font-family="Times,serif" font-size="14.00">ClientRoutingModule</text>
</g>
<!-- ClientRoutingModule&#45;&gt;ClientModule -->
<g id="edge7" class="edge">
<title>ClientRoutingModule&#45;&gt;ClientModule</title>
<path fill="none" stroke="black" d="M3525.63,-84.81C3525.63,-84.81 3525.63,-114.65 3525.63,-114.65"/>
<polygon fill="black" stroke="black" points="3522.13,-114.65 3525.63,-124.65 3529.13,-114.65 3522.13,-114.65"/>
</g>
<!-- CommandeComponent -->
<g id="node11" class="node">
<title>CommandeComponent</title>
<polygon fill="#ffffb3" stroke="black" points="2219.88,-160.8 2074.12,-160.8 2074.12,-124.8 2219.88,-124.8 2219.88,-160.8"/>
<text text-anchor="middle" x="2147" y="-138.6" font-family="Times,serif" font-size="14.00">CommandeComponent</text>
</g>
<!-- CommandeComponent&#45;&gt;CommandeModule -->
<g id="edge10" class="edge">
<title>CommandeComponent&#45;&gt;CommandeModule</title>
<path fill="none" stroke="black" d="M2147,-160.91C2147,-180.14 2147,-207.8 2147,-207.8 2147,-207.8 1871.22,-207.8 1871.22,-207.8"/>
<polygon fill="black" stroke="black" points="1871.22,-204.3 1861.22,-207.8 1871.22,-211.3 1871.22,-204.3"/>
</g>
<!-- LigneComponent -->
<g id="node12" class="node">
<title>LigneComponent</title>
<polygon fill="#ffffb3" stroke="black" points="2055.99,-160.8 1942.01,-160.8 1942.01,-124.8 2055.99,-124.8 2055.99,-160.8"/>
<text text-anchor="middle" x="1999" y="-138.6" font-family="Times,serif" font-size="14.00">LigneComponent</text>
</g>
<!-- LigneComponent&#45;&gt;CommandeModule -->
<g id="edge11" class="edge">
<title>LigneComponent&#45;&gt;CommandeModule</title>
<path fill="none" stroke="black" d="M1972.88,-160.83C1972.88,-177.86 1972.88,-200.8 1972.88,-200.8 1972.88,-200.8 1871.28,-200.8 1871.28,-200.8"/>
<polygon fill="black" stroke="black" points="1871.28,-197.3 1861.28,-200.8 1871.28,-204.3 1871.28,-197.3"/>
</g>
<!-- ListeComponent -->
<g id="node13" class="node">
<title>ListeComponent</title>
<polygon fill="#ffffb3" stroke="black" points="1923.82,-160.8 1814.18,-160.8 1814.18,-124.8 1923.82,-124.8 1923.82,-160.8"/>
<text text-anchor="middle" x="1869" y="-138.6" font-family="Times,serif" font-size="14.00">ListeComponent</text>
</g>
<!-- ListeComponent&#45;&gt;CommandeModule -->
<g id="edge12" class="edge">
<title>ListeComponent&#45;&gt;CommandeModule</title>
<path fill="none" stroke="black" d="M1837.69,-161.02C1837.69,-161.02 1837.69,-182.53 1837.69,-182.53"/>
<polygon fill="black" stroke="black" points="1834.19,-182.53 1837.69,-192.53 1841.19,-182.53 1834.19,-182.53"/>
</g>
<!-- LivraisonComponent -->
<g id="node14" class="node">
<title>LivraisonComponent</title>
<polygon fill="#ffffb3" stroke="black" points="1796.49,-160.8 1661.51,-160.8 1661.51,-124.8 1796.49,-124.8 1796.49,-160.8"/>
<text text-anchor="middle" x="1729" y="-138.6" font-family="Times,serif" font-size="14.00">LivraisonComponent</text>
</g>
<!-- LivraisonComponent&#45;&gt;CommandeModule -->
<g id="edge13" class="edge">
<title>LivraisonComponent&#45;&gt;CommandeModule</title>
<path fill="none" stroke="black" d="M1766.72,-161.02C1766.72,-161.02 1766.72,-182.53 1766.72,-182.53"/>
<polygon fill="black" stroke="black" points="1763.22,-182.53 1766.72,-192.53 1770.22,-182.53 1763.22,-182.53"/>
</g>
<!-- PanierComponent -->
<g id="node15" class="node">
<title>PanierComponent</title>
<polygon fill="#ffffb3" stroke="black" points="1643.6,-160.8 1526.4,-160.8 1526.4,-124.8 1643.6,-124.8 1643.6,-160.8"/>
<text text-anchor="middle" x="1585" y="-138.6" font-family="Times,serif" font-size="14.00">PanierComponent</text>
</g>
<!-- PanierComponent&#45;&gt;CommandeModule -->
<g id="edge14" class="edge">
<title>PanierComponent&#45;&gt;CommandeModule</title>
<path fill="none" stroke="black" d="M1617.12,-160.83C1617.12,-177.86 1617.12,-200.8 1617.12,-200.8 1617.12,-200.8 1726.92,-200.8 1726.92,-200.8"/>
<polygon fill="black" stroke="black" points="1726.92,-204.3 1736.92,-200.8 1726.92,-197.3 1726.92,-204.3"/>
</g>
<!-- LigneComponent  -->
<g id="node19" class="node">
<title>LigneComponent </title>
<polygon fill="#fb8072" stroke="black" points="2003.99,-296.8 1886.01,-296.8 1886.01,-260.8 2003.99,-260.8 2003.99,-296.8"/>
<text text-anchor="middle" x="1945" y="-274.6" font-family="Times,serif" font-size="14.00">LigneComponent </text>
</g>
<!-- CommandeModule&#45;&gt;LigneComponent  -->
<g id="edge18" class="edge">
<title>CommandeModule&#45;&gt;LigneComponent </title>
<path fill="none" stroke="black" stroke-dasharray="5,2" d="M1861.25,-221.8C1884.31,-221.8 1904.96,-221.8 1904.96,-221.8 1904.96,-221.8 1904.96,-250.76 1904.96,-250.76"/>
<polygon fill="black" stroke="black" points="1901.46,-250.76 1904.96,-260.76 1908.46,-250.76 1901.46,-250.76"/>
</g>
<!-- LivraisonComponent  -->
<g id="node20" class="node">
<title>LivraisonComponent </title>
<polygon fill="#fb8072" stroke="black" points="1868.49,-296.8 1729.51,-296.8 1729.51,-260.8 1868.49,-260.8 1868.49,-296.8"/>
<text text-anchor="middle" x="1799" y="-274.6" font-family="Times,serif" font-size="14.00">LivraisonComponent </text>
</g>
<!-- CommandeModule&#45;&gt;LivraisonComponent  -->
<g id="edge19" class="edge">
<title>CommandeModule&#45;&gt;LivraisonComponent </title>
<path fill="none" stroke="black" stroke-dasharray="5,2" d="M1799,-229.02C1799,-229.02 1799,-250.53 1799,-250.53"/>
<polygon fill="black" stroke="black" points="1795.5,-250.53 1799,-260.53 1802.5,-250.53 1795.5,-250.53"/>
</g>
<!-- PanierComponent  -->
<g id="node21" class="node">
<title>PanierComponent </title>
<polygon fill="#fb8072" stroke="black" points="1711.1,-296.8 1590.9,-296.8 1590.9,-260.8 1711.1,-260.8 1711.1,-296.8"/>
<text text-anchor="middle" x="1651" y="-274.6" font-family="Times,serif" font-size="14.00">PanierComponent </text>
</g>
<!-- CommandeModule&#45;&gt;PanierComponent  -->
<g id="edge20" class="edge">
<title>CommandeModule&#45;&gt;PanierComponent </title>
<path fill="none" stroke="black" stroke-dasharray="5,2" d="M1736.77,-221.8C1710.73,-221.8 1686.4,-221.8 1686.4,-221.8 1686.4,-221.8 1686.4,-250.76 1686.4,-250.76"/>
<polygon fill="black" stroke="black" points="1682.9,-250.76 1686.4,-260.76 1689.9,-250.76 1682.9,-250.76"/>
</g>
<!-- CommandeRoutingModule -->
<g id="node17" class="node">
<title>CommandeRoutingModule</title>
<polygon fill="#8dd3c7" stroke="black" points="1501.71,-160.8 1498.71,-164.8 1477.71,-164.8 1474.71,-160.8 1332.29,-160.8 1332.29,-124.8 1501.71,-124.8 1501.71,-160.8"/>
<text text-anchor="middle" x="1417" y="-138.6" font-family="Times,serif" font-size="14.00">CommandeRoutingModule</text>
</g>
<!-- CommandeRoutingModule&#45;&gt;CommandeModule -->
<g id="edge15" class="edge">
<title>CommandeRoutingModule&#45;&gt;CommandeModule</title>
<path fill="none" stroke="black" d="M1417,-160.91C1417,-180.14 1417,-207.8 1417,-207.8 1417,-207.8 1726.77,-207.8 1726.77,-207.8"/>
<polygon fill="black" stroke="black" points="1726.77,-211.3 1736.77,-207.8 1726.77,-204.3 1726.77,-211.3"/>
</g>
<!-- ProduitModule&#45;&gt;CommandeModule -->
<g id="edge17" class="edge">
<title>ProduitModule&#45;&gt;CommandeModule</title>
<path fill="none" stroke="black" d="M1264,-160.97C1264,-182.3 1264,-214.8 1264,-214.8 1264,-214.8 1726.84,-214.8 1726.84,-214.8"/>
<polygon fill="black" stroke="black" points="1726.84,-218.3 1736.84,-214.8 1726.84,-211.3 1726.84,-218.3"/>
</g>
<!-- ChoixBoissonComponent  -->
<g id="node37" class="node">
<title>ChoixBoissonComponent </title>
<polygon fill="#fb8072" stroke="black" points="364.18,-84.8 199.82,-84.8 199.82,-48.8 364.18,-48.8 364.18,-84.8"/>
<text text-anchor="middle" x="282" y="-62.6" font-family="Times,serif" font-size="14.00">ChoixBoissonComponent </text>
</g>
<!-- ProduitModule&#45;&gt;ChoixBoissonComponent  -->
<g id="edge37" class="edge">
<title>ProduitModule&#45;&gt;ChoixBoissonComponent </title>
<path fill="none" stroke="black" stroke-dasharray="5,2" d="M1213.61,-151.8C1013.01,-151.8 282,-151.8 282,-151.8 282,-151.8 282,-94.83 282,-94.83"/>
<polygon fill="black" stroke="black" points="285.5,-94.83 282,-84.83 278.5,-94.83 285.5,-94.83"/>
</g>
<!-- ComplementComponent  -->
<g id="node38" class="node">
<title>ComplementComponent </title>
<polygon fill="#fb8072" stroke="black" points="181.66,-84.8 24.34,-84.8 24.34,-48.8 181.66,-48.8 181.66,-84.8"/>
<text text-anchor="middle" x="103" y="-62.6" font-family="Times,serif" font-size="14.00">ComplementComponent </text>
</g>
<!-- ProduitModule&#45;&gt;ComplementComponent  -->
<g id="edge38" class="edge">
<title>ProduitModule&#45;&gt;ComplementComponent </title>
<path fill="none" stroke="black" stroke-dasharray="5,2" d="M1213.37,-156.8C989.91,-156.8 103,-156.8 103,-156.8 103,-156.8 103,-95.01 103,-95.01"/>
<polygon fill="black" stroke="black" points="106.5,-95.01 103,-85.01 99.5,-95.01 106.5,-95.01"/>
</g>
<!-- CompterComponent  -->
<g id="node39" class="node">
<title>CompterComponent </title>
<polygon fill="#fb8072" stroke="black" points="821.82,-84.8 688.18,-84.8 688.18,-48.8 821.82,-48.8 821.82,-84.8"/>
<text text-anchor="middle" x="755" y="-62.6" font-family="Times,serif" font-size="14.00">CompterComponent </text>
</g>
<!-- ProduitModule&#45;&gt;CompterComponent  -->
<g id="edge39" class="edge">
<title>ProduitModule&#45;&gt;CompterComponent </title>
<path fill="none" stroke="black" stroke-dasharray="5,2" d="M1213.33,-138.8C1084.59,-138.8 755,-138.8 755,-138.8 755,-138.8 755,-94.97 755,-94.97"/>
<polygon fill="black" stroke="black" points="758.5,-94.97 755,-84.97 751.5,-94.97 758.5,-94.97"/>
</g>
<!-- DetailComponent  -->
<g id="node40" class="node">
<title>DetailComponent </title>
<polygon fill="#fb8072" stroke="black" points="670.54,-84.8 551.46,-84.8 551.46,-48.8 670.54,-48.8 670.54,-84.8"/>
<text text-anchor="middle" x="611" y="-62.6" font-family="Times,serif" font-size="14.00">DetailComponent </text>
</g>
<!-- ProduitModule&#45;&gt;DetailComponent  -->
<g id="edge40" class="edge">
<title>ProduitModule&#45;&gt;DetailComponent </title>
<path fill="none" stroke="black" stroke-dasharray="5,2" d="M1213.57,-142.8C1060.41,-142.8 611,-142.8 611,-142.8 611,-142.8 611,-94.81 611,-94.81"/>
<polygon fill="black" stroke="black" points="614.5,-94.81 611,-84.81 607.5,-94.81 614.5,-94.81"/>
</g>
<!-- DetailMenuComponent  -->
<g id="node41" class="node">
<title>DetailMenuComponent </title>
<polygon fill="#fb8072" stroke="black" points="533.7,-84.8 382.3,-84.8 382.3,-48.8 533.7,-48.8 533.7,-84.8"/>
<text text-anchor="middle" x="458" y="-62.6" font-family="Times,serif" font-size="14.00">DetailMenuComponent </text>
</g>
<!-- ProduitModule&#45;&gt;DetailMenuComponent  -->
<g id="edge41" class="edge">
<title>ProduitModule&#45;&gt;DetailMenuComponent </title>
<path fill="none" stroke="black" stroke-dasharray="5,2" d="M1213.58,-147.8C1037.13,-147.8 458,-147.8 458,-147.8 458,-147.8 458,-95.18 458,-95.18"/>
<polygon fill="black" stroke="black" points="461.5,-95.18 458,-85.18 454.5,-95.18 461.5,-95.18"/>
</g>
<!-- FooterComponent -->
<g id="node22" class="node">
<title>FooterComponent</title>
<polygon fill="#ffffb3" stroke="black" points="2688.88,-160.8 2571.12,-160.8 2571.12,-124.8 2688.88,-124.8 2688.88,-160.8"/>
<text text-anchor="middle" x="2630" y="-138.6" font-family="Times,serif" font-size="14.00">FooterComponent</text>
</g>
<!-- FooterComponent&#45;&gt;LayoutModule -->
<g id="edge21" class="edge">
<title>FooterComponent&#45;&gt;LayoutModule</title>
<path fill="none" stroke="black" d="M2630,-124.77C2630,-104.03 2630,-72.8 2630,-72.8 2630,-72.8 2859.32,-72.8 2859.32,-72.8"/>
<polygon fill="black" stroke="black" points="2859.32,-76.3 2869.32,-72.8 2859.32,-69.3 2859.32,-76.3"/>
</g>
<!-- HeaderComponent -->
<g id="node23" class="node">
<title>HeaderComponent</title>
<polygon fill="#ffffb3" stroke="black" points="2828.75,-160.8 2707.25,-160.8 2707.25,-124.8 2828.75,-124.8 2828.75,-160.8"/>
<text text-anchor="middle" x="2768" y="-138.6" font-family="Times,serif" font-size="14.00">HeaderComponent</text>
</g>
<!-- HeaderComponent&#45;&gt;LayoutModule -->
<g id="edge22" class="edge">
<title>HeaderComponent&#45;&gt;LayoutModule</title>
<path fill="none" stroke="black" d="M2829.03,-148.8C2868.26,-148.8 2911.91,-148.8 2911.91,-148.8 2911.91,-148.8 2911.91,-95 2911.91,-95"/>
<polygon fill="black" stroke="black" points="2915.41,-95 2911.91,-85 2908.41,-95 2915.41,-95"/>
</g>
<!-- BlogComponent -->
<g id="node26" class="node">
<title>BlogComponent</title>
<polygon fill="#ffffb3" stroke="black" points="1251.06,-84.8 1142.94,-84.8 1142.94,-48.8 1251.06,-48.8 1251.06,-84.8"/>
<text text-anchor="middle" x="1197" y="-62.6" font-family="Times,serif" font-size="14.00">BlogComponent</text>
</g>
<!-- BlogComponent&#45;&gt;ProduitModule -->
<g id="edge25" class="edge">
<title>BlogComponent&#45;&gt;ProduitModule</title>
<path fill="none" stroke="black" d="M1232.44,-84.81C1232.44,-84.81 1232.44,-114.65 1232.44,-114.65"/>
<polygon fill="black" stroke="black" points="1228.94,-114.65 1232.44,-124.65 1235.94,-114.65 1228.94,-114.65"/>
</g>
<!-- CardComponent -->
<g id="node27" class="node">
<title>CardComponent</title>
<polygon fill="#ffffb3" stroke="black" points="1124.05,-84.8 1015.95,-84.8 1015.95,-48.8 1124.05,-48.8 1124.05,-84.8"/>
<text text-anchor="middle" x="1070" y="-62.6" font-family="Times,serif" font-size="14.00">CardComponent</text>
</g>
<!-- CardComponent&#45;&gt;ProduitModule -->
<g id="edge26" class="edge">
<title>CardComponent&#45;&gt;ProduitModule</title>
<path fill="none" stroke="black" d="M1070,-85.02C1070,-103.63 1070,-129.8 1070,-129.8 1070,-129.8 1203.54,-129.8 1203.54,-129.8"/>
<polygon fill="black" stroke="black" points="1203.54,-133.3 1213.54,-129.8 1203.54,-126.3 1203.54,-133.3"/>
</g>
<!-- CatalogueComponent -->
<g id="node28" class="node">
<title>CatalogueComponent</title>
<polygon fill="#ffffb3" stroke="black" points="2468.09,-84.8 2329.91,-84.8 2329.91,-48.8 2468.09,-48.8 2468.09,-84.8"/>
<text text-anchor="middle" x="2399" y="-62.6" font-family="Times,serif" font-size="14.00">CatalogueComponent</text>
</g>
<!-- CatalogueComponent&#45;&gt;ProduitModule -->
<g id="edge27" class="edge">
<title>CatalogueComponent&#45;&gt;ProduitModule</title>
<path fill="none" stroke="black" d="M2354.53,-84.95C2354.53,-98.54 2354.53,-114.8 2354.53,-114.8 2354.53,-114.8 1305.46,-114.8 1305.46,-114.8 1305.46,-114.8 1305.46,-115.78 1305.46,-115.78"/>
<polygon fill="black" stroke="black" points="1301.96,-114.59 1305.46,-124.59 1308.96,-114.59 1301.96,-114.59"/>
</g>
<!-- ChoixBoissonComponent -->
<g id="node29" class="node">
<title>ChoixBoissonComponent</title>
<polygon fill="#ffffb3" stroke="black" points="2312.18,-84.8 2151.82,-84.8 2151.82,-48.8 2312.18,-48.8 2312.18,-84.8"/>
<text text-anchor="middle" x="2232" y="-62.6" font-family="Times,serif" font-size="14.00">ChoixBoissonComponent</text>
</g>
<!-- ChoixBoissonComponent&#45;&gt;ProduitModule -->
<g id="edge28" class="edge">
<title>ChoixBoissonComponent&#45;&gt;ProduitModule</title>
<path fill="none" stroke="black" d="M2185.8,-84.95C2185.8,-97.07 2185.8,-110.8 2185.8,-110.8 2185.8,-110.8 1300.99,-110.8 1300.99,-110.8 1300.99,-110.8 1300.99,-114.56 1300.99,-114.56"/>
<polygon fill="black" stroke="black" points="1297.49,-114.56 1300.99,-124.56 1304.49,-114.56 1297.49,-114.56"/>
</g>
<!-- ComplementComponent -->
<g id="node30" class="node">
<title>ComplementComponent</title>
<polygon fill="#ffffb3" stroke="black" points="2133.66,-84.8 1980.34,-84.8 1980.34,-48.8 2133.66,-48.8 2133.66,-84.8"/>
<text text-anchor="middle" x="2057" y="-62.6" font-family="Times,serif" font-size="14.00">ComplementComponent</text>
</g>
<!-- ComplementComponent&#45;&gt;ProduitModule -->
<g id="edge29" class="edge">
<title>ComplementComponent&#45;&gt;ProduitModule</title>
<path fill="none" stroke="black" d="M2018.08,-84.93C2018.08,-95.51 2018.08,-106.8 2018.08,-106.8 2018.08,-106.8 1296.52,-106.8 1296.52,-106.8 1296.52,-106.8 1296.52,-114.38 1296.52,-114.38"/>
<polygon fill="black" stroke="black" points="1293.02,-114.38 1296.52,-124.38 1300.02,-114.38 1293.02,-114.38"/>
</g>
<!-- CompterComponent -->
<g id="node31" class="node">
<title>CompterComponent</title>
<polygon fill="#ffffb3" stroke="black" points="1962.32,-84.8 1831.68,-84.8 1831.68,-48.8 1962.32,-48.8 1962.32,-84.8"/>
<text text-anchor="middle" x="1897" y="-62.6" font-family="Times,serif" font-size="14.00">CompterComponent</text>
</g>
<!-- CompterComponent&#45;&gt;ProduitModule -->
<g id="edge30" class="edge">
<title>CompterComponent&#45;&gt;ProduitModule</title>
<path fill="none" stroke="black" d="M1877.75,-84.87C1877.75,-94.26 1877.75,-103.8 1877.75,-103.8 1877.75,-103.8 1292.06,-103.8 1292.06,-103.8 1292.06,-103.8 1292.06,-114.67 1292.06,-114.67"/>
<polygon fill="black" stroke="black" points="1288.56,-114.67 1292.06,-124.67 1295.56,-114.67 1288.56,-114.67"/>
</g>
<!-- DetailComponent -->
<g id="node32" class="node">
<title>DetailComponent</title>
<polygon fill="#ffffb3" stroke="black" points="1813.54,-84.8 1698.46,-84.8 1698.46,-48.8 1813.54,-48.8 1813.54,-84.8"/>
<text text-anchor="middle" x="1756" y="-62.6" font-family="Times,serif" font-size="14.00">DetailComponent</text>
</g>
<!-- DetailComponent&#45;&gt;ProduitModule -->
<g id="edge31" class="edge">
<title>DetailComponent&#45;&gt;ProduitModule</title>
<path fill="none" stroke="black" d="M1747.36,-84.84C1747.36,-92.55 1747.36,-99.8 1747.36,-99.8 1747.36,-99.8 1287.59,-99.8 1287.59,-99.8 1287.59,-99.8 1287.59,-114.31 1287.59,-114.31"/>
<polygon fill="black" stroke="black" points="1284.09,-114.31 1287.59,-124.31 1291.09,-114.31 1284.09,-114.31"/>
</g>
<!-- DetailMenuComponent -->
<g id="node33" class="node">
<title>DetailMenuComponent</title>
<polygon fill="#ffffb3" stroke="black" points="1680.2,-84.8 1531.8,-84.8 1531.8,-48.8 1680.2,-48.8 1680.2,-84.8"/>
<text text-anchor="middle" x="1606" y="-62.6" font-family="Times,serif" font-size="14.00">DetailMenuComponent</text>
</g>
<!-- DetailMenuComponent&#45;&gt;ProduitModule -->
<g id="edge32" class="edge">
<title>DetailMenuComponent&#45;&gt;ProduitModule</title>
<path fill="none" stroke="black" d="M1587.72,-85C1587.72,-90.83 1587.72,-95.8 1587.72,-95.8 1587.72,-95.8 1283.12,-95.8 1283.12,-95.8 1283.12,-95.8 1283.12,-114.76 1283.12,-114.76"/>
<polygon fill="black" stroke="black" points="1279.62,-114.76 1283.12,-124.76 1286.62,-114.76 1279.62,-114.76"/>
</g>
<!-- ListComponent -->
<g id="node34" class="node">
<title>ListComponent</title>
<polygon fill="#ffffb3" stroke="black" points="1513.61,-84.8 1410.39,-84.8 1410.39,-48.8 1513.61,-48.8 1513.61,-84.8"/>
<text text-anchor="middle" x="1462" y="-62.6" font-family="Times,serif" font-size="14.00">ListComponent</text>
</g>
<!-- ListComponent&#45;&gt;ProduitModule -->
<g id="edge33" class="edge">
<title>ListComponent&#45;&gt;ProduitModule</title>
<path fill="none" stroke="black" d="M1456.03,-84.86C1456.03,-89.29 1456.03,-92.8 1456.03,-92.8 1456.03,-92.8 1278.65,-92.8 1278.65,-92.8 1278.65,-92.8 1278.65,-114.75 1278.65,-114.75"/>
<polygon fill="black" stroke="black" points="1275.15,-114.75 1278.65,-124.75 1282.15,-114.75 1275.15,-114.75"/>
</g>
<!-- ProduitComponent -->
<g id="node35" class="node">
<title>ProduitComponent</title>
<polygon fill="#ffffb3" stroke="black" points="1392.06,-84.8 1269.94,-84.8 1269.94,-48.8 1392.06,-48.8 1392.06,-84.8"/>
<text text-anchor="middle" x="1331" y="-62.6" font-family="Times,serif" font-size="14.00">ProduitComponent</text>
</g>
<!-- ProduitComponent&#45;&gt;ProduitModule -->
<g id="edge34" class="edge">
<title>ProduitComponent&#45;&gt;ProduitModule</title>
<path fill="none" stroke="black" d="M1274.19,-84.81C1274.19,-84.81 1274.19,-114.65 1274.19,-114.65"/>
<polygon fill="black" stroke="black" points="1270.69,-114.65 1274.19,-124.65 1277.69,-114.65 1270.69,-114.65"/>
</g>
<!-- ProduitRoutingModule -->
<g id="node36" class="node">
<title>ProduitRoutingModule</title>
<polygon fill="#8dd3c7" stroke="black" points="991.9,-84.8 988.9,-88.8 967.9,-88.8 964.9,-84.8 846.1,-84.8 846.1,-48.8 991.9,-48.8 991.9,-84.8"/>
<text text-anchor="middle" x="919" y="-62.6" font-family="Times,serif" font-size="14.00">ProduitRoutingModule</text>
</g>
<!-- ProduitRoutingModule&#45;&gt;ProduitModule -->
<g id="edge36" class="edge">
<title>ProduitRoutingModule&#45;&gt;ProduitModule</title>
<path fill="none" stroke="black" d="M919,-85.11C919,-104.95 919,-133.8 919,-133.8 919,-133.8 1203.46,-133.8 1203.46,-133.8"/>
<polygon fill="black" stroke="black" points="1203.46,-137.3 1213.46,-133.8 1203.46,-130.3 1203.46,-137.3"/>
</g>
<!-- ConnexionComponent -->
<g id="node42" class="node">
<title>ConnexionComponent</title>
<polygon fill="#ffffb3" stroke="black" points="4075.27,-84.8 3932.73,-84.8 3932.73,-48.8 4075.27,-48.8 4075.27,-84.8"/>
<text text-anchor="middle" x="4004" y="-62.6" font-family="Times,serif" font-size="14.00">ConnexionComponent</text>
</g>
<!-- SecuriteModule -->
<g id="node43" class="node">
<title>SecuriteModule</title>
<polygon fill="#8dd3c7" stroke="black" points="3970.92,-160.8 3967.92,-164.8 3946.92,-164.8 3943.92,-160.8 3865.08,-160.8 3865.08,-124.8 3970.92,-124.8 3970.92,-160.8"/>
<text text-anchor="middle" x="3918" y="-138.6" font-family="Times,serif" font-size="14.00">SecuriteModule</text>
</g>
<!-- ConnexionComponent&#45;&gt;SecuriteModule -->
<g id="edge42" class="edge">
<title>ConnexionComponent&#45;&gt;SecuriteModule</title>
<path fill="none" stroke="black" d="M3951.66,-84.81C3951.66,-84.81 3951.66,-114.65 3951.66,-114.65"/>
<polygon fill="black" stroke="black" points="3948.16,-114.65 3951.66,-124.65 3955.16,-114.65 3948.16,-114.65"/>
</g>
<!-- ConnexionComponent  -->
<g id="node45" class="node">
<title>ConnexionComponent </title>
<polygon fill="#fb8072" stroke="black" points="3991.27,-228.8 3844.73,-228.8 3844.73,-192.8 3991.27,-192.8 3991.27,-228.8"/>
<text text-anchor="middle" x="3918" y="-206.6" font-family="Times,serif" font-size="14.00">ConnexionComponent </text>
</g>
<!-- SecuriteModule&#45;&gt;ConnexionComponent  -->
<g id="edge44" class="edge">
<title>SecuriteModule&#45;&gt;ConnexionComponent </title>
<path fill="none" stroke="black" stroke-dasharray="5,2" d="M3918,-161.02C3918,-161.02 3918,-182.53 3918,-182.53"/>
<polygon fill="black" stroke="black" points="3914.5,-182.53 3918,-192.53 3921.5,-182.53 3914.5,-182.53"/>
</g>
<!-- SecuriteRoutingModule -->
<g id="node44" class="node">
<title>SecuriteRoutingModule</title>
<polygon fill="#8dd3c7" stroke="black" points="3909.04,-84.8 3906.04,-88.8 3885.04,-88.8 3882.04,-84.8 3758.96,-84.8 3758.96,-48.8 3909.04,-48.8 3909.04,-84.8"/>
<text text-anchor="middle" x="3834" y="-62.6" font-family="Times,serif" font-size="14.00">SecuriteRoutingModule</text>
</g>
<!-- SecuriteRoutingModule&#45;&gt;SecuriteModule -->
<g id="edge43" class="edge">
<title>SecuriteRoutingModule&#45;&gt;SecuriteModule</title>
<path fill="none" stroke="black" d="M3887.28,-84.81C3887.28,-84.81 3887.28,-114.65 3887.28,-114.65"/>
<polygon fill="black" stroke="black" points="3883.78,-114.65 3887.28,-124.65 3890.78,-114.65 3883.78,-114.65"/>
</g>
</g>
</svg>
