<?xml version="1.0" encoding="UTF-8" standalone="no"?>
<!DOCTYPE svg PUBLIC "-//W3C//DTD SVG 1.1//EN"
 "http://www.w3.org/Graphics/SVG/1.1/DTD/svg11.dtd">
<!-- Generated by graphviz version 5.0.0 (20220707.1540)
 -->
<!-- Title: dependencies Pages: 1 -->
<svg width="4050pt" height="329pt"
 viewBox="0.00 0.00 4050.00 328.80" xmlns="http://www.w3.org/2000/svg" xmlns:xlink="http://www.w3.org/1999/xlink">
<g id="graph0" class="graph" transform="scale(1 1) rotate(0) translate(4 324.8)">
<title>dependencies</title>
<polygon fill="white" stroke="transparent" points="-4,4 -4,-324.8 4046,-324.8 4046,4 -4,4"/>
<text text-anchor="middle" x="2021" y="-8.2" font-family="sans-serif" font-size="14.00">dependencies</text>
<g id="clust1" class="cluster">
<title>cluster_AppModule</title>
<polygon fill="none" stroke="black" stroke-dasharray="1,5" points="8,-32.8 8,-244.8 572,-244.8 572,-32.8 8,-32.8"/>
</g>
<g id="clust2" class="cluster">
<title>cluster_AppModule_declarations</title>
<polygon fill="none" stroke="black" points="16,-40.8 16,-92.8 294,-92.8 294,-40.8 16,-40.8"/>
</g>
<g id="clust5" class="cluster">
<title>cluster_AppModule_imports</title>
<polygon fill="none" stroke="black" points="302,-40.8 302,-92.8 564,-92.8 564,-40.8 302,-40.8"/>
</g>
<g id="clust7" class="cluster">
<title>cluster_AppModule_bootstrap</title>
<polygon fill="none" stroke="black" points="241,-184.8 241,-236.8 365,-236.8 365,-184.8 241,-184.8"/>
</g>
<g id="clust15" class="cluster">
<title>cluster_ClientModule</title>
<polygon fill="none" stroke="black" stroke-dasharray="1,5" points="1167,-32.8 1167,-168.8 1337,-168.8 1337,-32.8 1167,-32.8"/>
</g>
<g id="clust17" class="cluster">
<title>cluster_ClientModule_imports</title>
<polygon fill="none" stroke="black" points="1175,-40.8 1175,-92.8 1329,-92.8 1329,-40.8 1175,-40.8"/>
</g>
<g id="clust27" class="cluster">
<title>cluster_CommandeModule</title>
<polygon fill="none" stroke="black" stroke-dasharray="1,5" points="2340,-108.8 2340,-312.8 3378,-312.8 3378,-108.8 2340,-108.8"/>
</g>
<g id="clust28" class="cluster">
<title>cluster_CommandeModule_declarations</title>
<polygon fill="none" stroke="black" points="2660,-116.8 2660,-168.8 3370,-168.8 3370,-116.8 2660,-116.8"/>
</g>
<g id="clust34" class="cluster">
<title>cluster_CommandeModule_imports</title>
<polygon fill="none" stroke="black" points="2348,-116.8 2348,-168.8 2652,-168.8 2652,-116.8 2348,-116.8"/>
</g>
<g id="clust35" class="cluster">
<title>cluster_CommandeModule_exports</title>
<polygon fill="none" stroke="black" points="2583,-252.8 2583,-304.8 3012,-304.8 3012,-252.8 2583,-252.8"/>
</g>
<g id="clust44" class="cluster">
<title>cluster_LayoutModule</title>
<polygon fill="none" stroke="black" stroke-dasharray="1,5" points="580,-108.8 580,-176.8 1159,-176.8 1159,-108.8 580,-108.8"/>
</g>
<g id="clust45" class="cluster">
<title>cluster_LayoutModule_declarations</title>
<polygon fill="none" stroke="black" points="877,-116.8 877,-168.8 1151,-168.8 1151,-116.8 877,-116.8"/>
</g>
<g id="clust49" class="cluster">
<title>cluster_LayoutModule_exports</title>
<polygon fill="none" stroke="black" points="588,-116.8 588,-168.8 869,-168.8 869,-116.8 588,-116.8"/>
</g>
<g id="clust52" class="cluster">
<title>cluster_ProduitModule</title>
<polygon fill="none" stroke="black" stroke-dasharray="1,5" points="1345,-32.8 1345,-100.8 3678,-100.8 3678,-32.8 1345,-32.8"/>
</g>
<g id="clust53" class="cluster">
<title>cluster_ProduitModule_declarations</title>
<polygon fill="none" stroke="black" points="2344,-40.8 2344,-92.8 3670,-92.8 3670,-40.8 2344,-40.8"/>
</g>
<g id="clust63" class="cluster">
<title>cluster_ProduitModule_imports</title>
<polygon fill="none" stroke="black" points="2174,-40.8 2174,-92.8 2336,-92.8 2336,-40.8 2174,-40.8"/>
</g>
<g id="clust64" class="cluster">
<title>cluster_ProduitModule_exports</title>
<polygon fill="none" stroke="black" points="1353,-40.8 1353,-92.8 2166,-92.8 2166,-40.8 1353,-40.8"/>
</g>
<g id="clust73" class="cluster">
<title>cluster_SecuriteModule</title>
<polygon fill="none" stroke="black" stroke-dasharray="1,5" points="3686,-32.8 3686,-244.8 4034,-244.8 4034,-32.8 3686,-32.8"/>
</g>
<g id="clust74" class="cluster">
<title>cluster_SecuriteModule_declarations</title>
<polygon fill="none" stroke="black" points="3868,-40.8 3868,-92.8 4026,-92.8 4026,-40.8 3868,-40.8"/>
</g>
<g id="clust76" class="cluster">
<title>cluster_SecuriteModule_imports</title>
<polygon fill="none" stroke="black" points="3694,-40.8 3694,-92.8 3860,-92.8 3860,-40.8 3694,-40.8"/>
</g>
<g id="clust77" class="cluster">
<title>cluster_SecuriteModule_exports</title>
<polygon fill="none" stroke="black" points="3780,-184.8 3780,-236.8 3942,-236.8 3942,-184.8 3780,-184.8"/>
</g>
<!-- AppComponent -->
<g id="node1" class="node">
<title>AppComponent</title>
<polygon fill="#ffffb3" stroke="black" points="285.94,-84.8 180.06,-84.8 180.06,-48.8 285.94,-48.8 285.94,-84.8"/>
<text text-anchor="middle" x="233" y="-62.6" font-family="Times,serif" font-size="14.00">AppComponent</text>
</g>
<!-- AppModule -->
<g id="node3" class="node">
<title>AppModule</title>
<polygon fill="#8dd3c7" stroke="black" points="344.66,-160.8 341.66,-164.8 320.66,-164.8 317.66,-160.8 261.34,-160.8 261.34,-124.8 344.66,-124.8 344.66,-160.8"/>
<text text-anchor="middle" x="303" y="-138.6" font-family="Times,serif" font-size="14.00">AppModule</text>
</g>
<!-- AppComponent&#45;&gt;AppModule -->
<g id="edge1" class="edge">
<title>AppComponent&#45;&gt;AppModule</title>
<path fill="none" stroke="black" d="M273.44,-84.81C273.44,-84.81 273.44,-114.65 273.44,-114.65"/>
<polygon fill="black" stroke="black" points="269.94,-114.65 273.44,-124.65 276.94,-114.65 269.94,-114.65"/>
</g>
<!-- NotFoundComponent -->
<g id="node2" class="node">
<title>NotFoundComponent</title>
<polygon fill="#ffffb3" stroke="black" points="162.12,-84.8 23.88,-84.8 23.88,-48.8 162.12,-48.8 162.12,-84.8"/>
<text text-anchor="middle" x="93" y="-62.6" font-family="Times,serif" font-size="14.00">NotFoundComponent</text>
</g>
<!-- NotFoundComponent&#45;&gt;AppModule -->
<g id="edge2" class="edge">
<title>NotFoundComponent&#45;&gt;AppModule</title>
<path fill="none" stroke="black" d="M93,-84.81C93,-107.29 93,-142.8 93,-142.8 93,-142.8 251.26,-142.8 251.26,-142.8"/>
<polygon fill="black" stroke="black" points="251.26,-146.3 261.26,-142.8 251.26,-139.3 251.26,-146.3"/>
</g>
<!-- AppComponent  -->
<g id="node6" class="node">
<title>AppComponent </title>
<polygon fill="#80b1d3" stroke="black" points="357.44,-228.8 248.56,-228.8 248.56,-192.8 357.44,-192.8 357.44,-228.8"/>
<text text-anchor="middle" x="303" y="-206.6" font-family="Times,serif" font-size="14.00">AppComponent </text>
</g>
<!-- AppModule&#45;&gt;AppComponent  -->
<g id="edge5" class="edge">
<title>AppModule&#45;&gt;AppComponent </title>
<path fill="none" stroke="black" stroke-dasharray="1,5" d="M303,-161.02C303,-161.02 303,-182.53 303,-182.53"/>
<polygon fill="black" stroke="black" points="299.5,-182.53 303,-192.53 306.5,-182.53 299.5,-182.53"/>
</g>
<!-- AppRoutingModule -->
<g id="node4" class="node">
<title>AppRoutingModule</title>
<polygon fill="#8dd3c7" stroke="black" points="438.28,-84.8 435.28,-88.8 414.28,-88.8 411.28,-84.8 309.72,-84.8 309.72,-48.8 438.28,-48.8 438.28,-84.8"/>
<text text-anchor="middle" x="374" y="-62.6" font-family="Times,serif" font-size="14.00">AppRoutingModule</text>
</g>
<!-- AppRoutingModule&#45;&gt;AppModule -->
<g id="edge3" class="edge">
<title>AppRoutingModule&#45;&gt;AppModule</title>
<path fill="none" stroke="black" d="M327.22,-84.81C327.22,-84.81 327.22,-114.65 327.22,-114.65"/>
<polygon fill="black" stroke="black" points="323.72,-114.65 327.22,-124.65 330.72,-114.65 323.72,-114.65"/>
</g>
<!-- LayoutModule -->
<g id="node5" class="node">
<title>LayoutModule</title>
<polygon fill="#8dd3c7" stroke="black" points="555.71,-84.8 552.71,-88.8 531.71,-88.8 528.71,-84.8 456.29,-84.8 456.29,-48.8 555.71,-48.8 555.71,-84.8"/>
<text text-anchor="middle" x="506" y="-62.6" font-family="Times,serif" font-size="14.00">LayoutModule</text>
</g>
<!-- LayoutModule&#45;&gt;AppModule -->
<g id="edge4" class="edge">
<title>LayoutModule&#45;&gt;AppModule</title>
<path fill="none" stroke="black" d="M476.24,-84.83C476.24,-105.57 476.24,-136.8 476.24,-136.8 476.24,-136.8 354.94,-136.8 354.94,-136.8"/>
<polygon fill="black" stroke="black" points="354.94,-133.3 344.94,-136.8 354.94,-140.3 354.94,-133.3"/>
</g>
<!-- ClientModule -->
<g id="node8" class="node">
<title>ClientModule</title>
<polygon fill="#8dd3c7" stroke="black" points="1283.77,-160.8 1280.77,-164.8 1259.77,-164.8 1256.77,-160.8 1190.23,-160.8 1190.23,-124.8 1283.77,-124.8 1283.77,-160.8"/>
<text text-anchor="middle" x="1237" y="-138.6" font-family="Times,serif" font-size="14.00">ClientModule</text>
</g>
<!-- LayoutModule&#45;&gt;ClientModule -->
<g id="edge7" class="edge">
<title>LayoutModule&#45;&gt;ClientModule</title>
<path fill="none" stroke="black" d="M555.63,-56.8C708.63,-56.8 1162.75,-56.8 1162.75,-56.8 1162.75,-56.8 1162.75,-142.8 1162.75,-142.8 1162.75,-142.8 1179.98,-142.8 1179.98,-142.8"/>
<polygon fill="black" stroke="black" points="1179.98,-146.3 1189.98,-142.8 1179.98,-139.3 1179.98,-146.3"/>
</g>
<!-- CommandeModule -->
<g id="node14" class="node">
<title>CommandeModule</title>
<polygon fill="#8dd3c7" stroke="black" points="2861.1,-228.8 2858.1,-232.8 2837.1,-232.8 2834.1,-228.8 2736.9,-228.8 2736.9,-192.8 2861.1,-192.8 2861.1,-228.8"/>
<text text-anchor="middle" x="2799" y="-206.6" font-family="Times,serif" font-size="14.00">CommandeModule</text>
</g>
<!-- LayoutModule&#45;&gt;CommandeModule -->
<g id="edge14" class="edge">
<title>LayoutModule&#45;&gt;CommandeModule</title>
<path fill="none" stroke="black" d="M496.08,-84.95C496.08,-124.47 496.08,-214.8 496.08,-214.8 496.08,-214.8 2726.81,-214.8 2726.81,-214.8"/>
<polygon fill="black" stroke="black" points="2726.81,-218.3 2736.81,-214.8 2726.81,-211.3 2726.81,-218.3"/>
</g>
<!-- ProduitModule -->
<g id="node16" class="node">
<title>ProduitModule</title>
<polygon fill="#8dd3c7" stroke="black" points="2456.28,-160.8 2453.28,-164.8 2432.28,-164.8 2429.28,-160.8 2355.72,-160.8 2355.72,-124.8 2456.28,-124.8 2456.28,-160.8"/>
<text text-anchor="middle" x="2406" y="-138.6" font-family="Times,serif" font-size="14.00">ProduitModule</text>
</g>
<!-- LayoutModule&#45;&gt;ProduitModule -->
<g id="edge32" class="edge">
<title>LayoutModule&#45;&gt;ProduitModule</title>
<path fill="none" stroke="black" d="M515.92,-84.92C515.92,-87.77 515.92,-89.8 515.92,-89.8 515.92,-89.8 2365.69,-89.8 2365.69,-89.8 2365.69,-89.8 2365.69,-114.56 2365.69,-114.56"/>
<polygon fill="black" stroke="black" points="2362.19,-114.56 2365.69,-124.56 2369.19,-114.56 2362.19,-114.56"/>
</g>
<!-- FooterComponent  -->
<g id="node22" class="node">
<title>FooterComponent </title>
<polygon fill="#fb8072" stroke="black" points="860.88,-160.8 739.12,-160.8 739.12,-124.8 860.88,-124.8 860.88,-160.8"/>
<text text-anchor="middle" x="800" y="-138.6" font-family="Times,serif" font-size="14.00">FooterComponent </text>
</g>
<!-- LayoutModule&#45;&gt;FooterComponent  -->
<g id="edge21" class="edge">
<title>LayoutModule&#45;&gt;FooterComponent </title>
<path fill="none" stroke="black" stroke-dasharray="5,2" d="M555.87,-77.8C639.75,-77.8 800,-77.8 800,-77.8 800,-77.8 800,-114.69 800,-114.69"/>
<polygon fill="black" stroke="black" points="796.5,-114.69 800,-124.69 803.5,-114.69 796.5,-114.69"/>
</g>
<!-- HeaderComponent  -->
<g id="node23" class="node">
<title>HeaderComponent </title>
<polygon fill="#fb8072" stroke="black" points="721.75,-160.8 596.25,-160.8 596.25,-124.8 721.75,-124.8 721.75,-160.8"/>
<text text-anchor="middle" x="659" y="-138.6" font-family="Times,serif" font-size="14.00">HeaderComponent </text>
</g>
<!-- LayoutModule&#45;&gt;HeaderComponent  -->
<g id="edge22" class="edge">
<title>LayoutModule&#45;&gt;HeaderComponent </title>
<path fill="none" stroke="black" stroke-dasharray="5,2" d="M535.76,-85C535.76,-109.16 535.76,-148.8 535.76,-148.8 535.76,-148.8 586.3,-148.8 586.3,-148.8"/>
<polygon fill="black" stroke="black" points="586.3,-152.3 596.3,-148.8 586.3,-145.3 586.3,-152.3"/>
</g>
<!-- ClientRoutingModule -->
<g id="node7" class="node">
<title>ClientRoutingModule</title>
<polygon fill="#8dd3c7" stroke="black" points="1321.39,-84.8 1318.39,-88.8 1297.39,-88.8 1294.39,-84.8 1182.61,-84.8 1182.61,-48.8 1321.39,-48.8 1321.39,-84.8"/>
<text text-anchor="middle" x="1252" y="-62.6" font-family="Times,serif" font-size="14.00">ClientRoutingModule</text>
</g>
<!-- ClientRoutingModule&#45;&gt;ClientModule -->
<g id="edge6" class="edge">
<title>ClientRoutingModule&#45;&gt;ClientModule</title>
<path fill="none" stroke="black" d="M1237,-84.81C1237,-84.81 1237,-114.65 1237,-114.65"/>
<polygon fill="black" stroke="black" points="1233.5,-114.65 1237,-124.65 1240.5,-114.65 1233.5,-114.65"/>
</g>
<!-- CommandeComponent -->
<g id="node9" class="node">
<title>CommandeComponent</title>
<polygon fill="#ffffb3" stroke="black" points="3361.88,-160.8 3216.12,-160.8 3216.12,-124.8 3361.88,-124.8 3361.88,-160.8"/>
<text text-anchor="middle" x="3289" y="-138.6" font-family="Times,serif" font-size="14.00">CommandeComponent</text>
</g>
<!-- CommandeComponent&#45;&gt;CommandeModule -->
<g id="edge8" class="edge">
<title>CommandeComponent&#45;&gt;CommandeModule</title>
<path fill="none" stroke="black" d="M3289,-160.97C3289,-182.3 3289,-214.8 3289,-214.8 3289,-214.8 2871.06,-214.8 2871.06,-214.8"/>
<polygon fill="black" stroke="black" points="2871.06,-211.3 2861.06,-214.8 2871.06,-218.3 2871.06,-211.3"/>
</g>
<!-- LigneComponent -->
<g id="node10" class="node">
<title>LigneComponent</title>
<polygon fill="#ffffb3" stroke="black" points="3197.99,-160.8 3084.01,-160.8 3084.01,-124.8 3197.99,-124.8 3197.99,-160.8"/>
<text text-anchor="middle" x="3141" y="-138.6" font-family="Times,serif" font-size="14.00">LigneComponent</text>
</g>
<!-- LigneComponent&#45;&gt;CommandeModule -->
<g id="edge9" class="edge">
<title>LigneComponent&#45;&gt;CommandeModule</title>
<path fill="none" stroke="black" d="M3141,-160.91C3141,-180.14 3141,-207.8 3141,-207.8 3141,-207.8 2871.33,-207.8 2871.33,-207.8"/>
<polygon fill="black" stroke="black" points="2871.33,-204.3 2861.33,-207.8 2871.33,-211.3 2871.33,-204.3"/>
</g>
<!-- ListeComponent -->
<g id="node11" class="node">
<title>ListeComponent</title>
<polygon fill="#ffffb3" stroke="black" points="3065.82,-160.8 2956.18,-160.8 2956.18,-124.8 3065.82,-124.8 3065.82,-160.8"/>
<text text-anchor="middle" x="3011" y="-138.6" font-family="Times,serif" font-size="14.00">ListeComponent</text>
</g>
<!-- ListeComponent&#45;&gt;CommandeModule -->
<g id="edge10" class="edge">
<title>ListeComponent&#45;&gt;CommandeModule</title>
<path fill="none" stroke="black" d="M2980.04,-160.83C2980.04,-177.86 2980.04,-200.8 2980.04,-200.8 2980.04,-200.8 2871.05,-200.8 2871.05,-200.8"/>
<polygon fill="black" stroke="black" points="2871.05,-197.3 2861.05,-200.8 2871.05,-204.3 2871.05,-197.3"/>
</g>
<!-- LivraisonComponent -->
<g id="node12" class="node">
<title>LivraisonComponent</title>
<polygon fill="#ffffb3" stroke="black" points="2938.49,-160.8 2803.51,-160.8 2803.51,-124.8 2938.49,-124.8 2938.49,-160.8"/>
<text text-anchor="middle" x="2871" y="-138.6" font-family="Times,serif" font-size="14.00">LivraisonComponent</text>
</g>
<!-- LivraisonComponent&#45;&gt;CommandeModule -->
<g id="edge11" class="edge">
<title>LivraisonComponent&#45;&gt;CommandeModule</title>
<path fill="none" stroke="black" d="M2832.28,-161.02C2832.28,-161.02 2832.28,-182.53 2832.28,-182.53"/>
<polygon fill="black" stroke="black" points="2828.78,-182.53 2832.28,-192.53 2835.78,-182.53 2828.78,-182.53"/>
</g>
<!-- PanierComponent -->
<g id="node13" class="node">
<title>PanierComponent</title>
<polygon fill="#ffffb3" stroke="black" points="2785.6,-160.8 2668.4,-160.8 2668.4,-124.8 2785.6,-124.8 2785.6,-160.8"/>
<text text-anchor="middle" x="2727" y="-138.6" font-family="Times,serif" font-size="14.00">PanierComponent</text>
</g>
<!-- PanierComponent&#45;&gt;CommandeModule -->
<g id="edge12" class="edge">
<title>PanierComponent&#45;&gt;CommandeModule</title>
<path fill="none" stroke="black" d="M2761.25,-161.02C2761.25,-161.02 2761.25,-182.53 2761.25,-182.53"/>
<polygon fill="black" stroke="black" points="2757.75,-182.53 2761.25,-192.53 2764.75,-182.53 2757.75,-182.53"/>
</g>
<!-- LigneComponent  -->
<g id="node17" class="node">
<title>LigneComponent </title>
<polygon fill="#fb8072" stroke="black" points="3003.99,-296.8 2886.01,-296.8 2886.01,-260.8 3003.99,-260.8 3003.99,-296.8"/>
<text text-anchor="middle" x="2945" y="-274.6" font-family="Times,serif" font-size="14.00">LigneComponent </text>
</g>
<!-- CommandeModule&#45;&gt;LigneComponent  -->
<g id="edge16" class="edge">
<title>CommandeModule&#45;&gt;LigneComponent </title>
<path fill="none" stroke="black" stroke-dasharray="5,2" d="M2861.33,-221.8C2887.67,-221.8 2912.38,-221.8 2912.38,-221.8 2912.38,-221.8 2912.38,-250.76 2912.38,-250.76"/>
<polygon fill="black" stroke="black" points="2908.88,-250.76 2912.38,-260.76 2915.88,-250.76 2908.88,-250.76"/>
</g>
<!-- LivraisonComponent  -->
<g id="node18" class="node">
<title>LivraisonComponent </title>
<polygon fill="#fb8072" stroke="black" points="2868.49,-296.8 2729.51,-296.8 2729.51,-260.8 2868.49,-260.8 2868.49,-296.8"/>
<text text-anchor="middle" x="2799" y="-274.6" font-family="Times,serif" font-size="14.00">LivraisonComponent </text>
</g>
<!-- CommandeModule&#45;&gt;LivraisonComponent  -->
<g id="edge17" class="edge">
<title>CommandeModule&#45;&gt;LivraisonComponent </title>
<path fill="none" stroke="black" stroke-dasharray="5,2" d="M2799,-229.02C2799,-229.02 2799,-250.53 2799,-250.53"/>
<polygon fill="black" stroke="black" points="2795.5,-250.53 2799,-260.53 2802.5,-250.53 2795.5,-250.53"/>
</g>
<!-- PanierComponent  -->
<g id="node19" class="node">
<title>PanierComponent </title>
<polygon fill="#fb8072" stroke="black" points="2711.1,-296.8 2590.9,-296.8 2590.9,-260.8 2711.1,-260.8 2711.1,-296.8"/>
<text text-anchor="middle" x="2651" y="-274.6" font-family="Times,serif" font-size="14.00">PanierComponent </text>
</g>
<!-- CommandeModule&#45;&gt;PanierComponent  -->
<g id="edge18" class="edge">
<title>CommandeModule&#45;&gt;PanierComponent </title>
<path fill="none" stroke="black" stroke-dasharray="5,2" d="M2736.79,-221.8C2712.28,-221.8 2689.88,-221.8 2689.88,-221.8 2689.88,-221.8 2689.88,-250.76 2689.88,-250.76"/>
<polygon fill="black" stroke="black" points="2686.38,-250.76 2689.88,-260.76 2693.38,-250.76 2686.38,-250.76"/>
</g>
<!-- CommandeRoutingModule -->
<g id="node15" class="node">
<title>CommandeRoutingModule</title>
<polygon fill="#8dd3c7" stroke="black" points="2643.71,-160.8 2640.71,-164.8 2619.71,-164.8 2616.71,-160.8 2474.29,-160.8 2474.29,-124.8 2643.71,-124.8 2643.71,-160.8"/>
<text text-anchor="middle" x="2559" y="-138.6" font-family="Times,serif" font-size="14.00">CommandeRoutingModule</text>
</g>
<!-- CommandeRoutingModule&#45;&gt;CommandeModule -->
<g id="edge13" class="edge">
<title>CommandeRoutingModule&#45;&gt;CommandeModule</title>
<path fill="none" stroke="black" d="M2617.15,-160.83C2617.15,-177.86 2617.15,-200.8 2617.15,-200.8 2617.15,-200.8 2726.93,-200.8 2726.93,-200.8"/>
<polygon fill="black" stroke="black" points="2726.93,-204.3 2736.93,-200.8 2726.93,-197.3 2726.93,-204.3"/>
</g>
<!-- ProduitModule&#45;&gt;CommandeModule -->
<g id="edge15" class="edge">
<title>ProduitModule&#45;&gt;CommandeModule</title>
<path fill="none" stroke="black" d="M2406,-160.91C2406,-180.14 2406,-207.8 2406,-207.8 2406,-207.8 2726.73,-207.8 2726.73,-207.8"/>
<polygon fill="black" stroke="black" points="2726.73,-211.3 2736.73,-207.8 2726.73,-204.3 2726.73,-211.3"/>
</g>
<!-- ChoixBoissonComponent  -->
<g id="node34" class="node">
<title>ChoixBoissonComponent </title>
<polygon fill="#fb8072" stroke="black" points="1525.18,-84.8 1360.82,-84.8 1360.82,-48.8 1525.18,-48.8 1525.18,-84.8"/>
<text text-anchor="middle" x="1443" y="-62.6" font-family="Times,serif" font-size="14.00">ChoixBoissonComponent </text>
</g>
<!-- ProduitModule&#45;&gt;ChoixBoissonComponent  -->
<g id="edge34" class="edge">
<title>ProduitModule&#45;&gt;ChoixBoissonComponent </title>
<path fill="none" stroke="black" stroke-dasharray="5,2" d="M2355.58,-155.8C2157.44,-155.8 1443,-155.8 1443,-155.8 1443,-155.8 1443,-94.81 1443,-94.81"/>
<polygon fill="black" stroke="black" points="1446.5,-94.81 1443,-84.81 1439.5,-94.81 1446.5,-94.81"/>
</g>
<!-- ComplementComponent  -->
<g id="node35" class="node">
<title>ComplementComponent </title>
<polygon fill="#fb8072" stroke="black" points="2157.66,-84.8 2000.34,-84.8 2000.34,-48.8 2157.66,-48.8 2157.66,-84.8"/>
<text text-anchor="middle" x="2079" y="-62.6" font-family="Times,serif" font-size="14.00">ComplementComponent </text>
</g>
<!-- ProduitModule&#45;&gt;ComplementComponent  -->
<g id="edge35" class="edge">
<title>ProduitModule&#45;&gt;ComplementComponent </title>
<path fill="none" stroke="black" stroke-dasharray="5,2" d="M2355.62,-135.8C2263.9,-135.8 2079,-135.8 2079,-135.8 2079,-135.8 2079,-94.93 2079,-94.93"/>
<polygon fill="black" stroke="black" points="2082.5,-94.93 2079,-84.93 2075.5,-94.93 2082.5,-94.93"/>
</g>
<!-- CompterComponent  -->
<g id="node36" class="node">
<title>CompterComponent </title>
<polygon fill="#fb8072" stroke="black" points="1982.82,-84.8 1849.18,-84.8 1849.18,-48.8 1982.82,-48.8 1982.82,-84.8"/>
<text text-anchor="middle" x="1916" y="-62.6" font-family="Times,serif" font-size="14.00">CompterComponent </text>
</g>
<!-- ProduitModule&#45;&gt;CompterComponent  -->
<g id="edge36" class="edge">
<title>ProduitModule&#45;&gt;CompterComponent </title>
<path fill="none" stroke="black" stroke-dasharray="5,2" d="M2355.41,-140.8C2230.21,-140.8 1916,-140.8 1916,-140.8 1916,-140.8 1916,-95.09 1916,-95.09"/>
<polygon fill="black" stroke="black" points="1919.5,-95.09 1916,-85.09 1912.5,-95.09 1919.5,-95.09"/>
</g>
<!-- DetailComponent  -->
<g id="node37" class="node">
<title>DetailComponent </title>
<polygon fill="#fb8072" stroke="black" points="1831.54,-84.8 1712.46,-84.8 1712.46,-48.8 1831.54,-48.8 1831.54,-84.8"/>
<text text-anchor="middle" x="1772" y="-62.6" font-family="Times,serif" font-size="14.00">DetailComponent </text>
</g>
<!-- ProduitModule&#45;&gt;DetailComponent  -->
<g id="edge37" class="edge">
<title>ProduitModule&#45;&gt;DetailComponent </title>
<path fill="none" stroke="black" stroke-dasharray="5,2" d="M2355.46,-145.8C2205.25,-145.8 1772,-145.8 1772,-145.8 1772,-145.8 1772,-95.12 1772,-95.12"/>
<polygon fill="black" stroke="black" points="1775.5,-95.12 1772,-85.12 1768.5,-95.12 1775.5,-95.12"/>
</g>
<!-- DetailMenuComponent  -->
<g id="node38" class="node">
<title>DetailMenuComponent </title>
<polygon fill="#fb8072" stroke="black" points="1694.7,-84.8 1543.3,-84.8 1543.3,-48.8 1694.7,-48.8 1694.7,-84.8"/>
<text text-anchor="middle" x="1619" y="-62.6" font-family="Times,serif" font-size="14.00">DetailMenuComponent </text>
</g>
<!-- ProduitModule&#45;&gt;DetailMenuComponent  -->
<g id="edge38" class="edge">
<title>ProduitModule&#45;&gt;DetailMenuComponent </title>
<path fill="none" stroke="black" stroke-dasharray="5,2" d="M2355.57,-150.8C2181.87,-150.8 1619,-150.8 1619,-150.8 1619,-150.8 1619,-95.03 1619,-95.03"/>
<polygon fill="black" stroke="black" points="1622.5,-95.03 1619,-85.03 1615.5,-95.03 1622.5,-95.03"/>
</g>
<!-- FooterComponent -->
<g id="node20" class="node">
<title>FooterComponent</title>
<polygon fill="#ffffb3" stroke="black" points="1142.88,-160.8 1025.12,-160.8 1025.12,-124.8 1142.88,-124.8 1142.88,-160.8"/>
<text text-anchor="middle" x="1084" y="-138.6" font-family="Times,serif" font-size="14.00">FooterComponent</text>
</g>
<!-- FooterComponent&#45;&gt;LayoutModule -->
<g id="edge19" class="edge">
<title>FooterComponent&#45;&gt;LayoutModule</title>
<path fill="none" stroke="black" d="M1084,-124.48C1084,-101.14 1084,-63.8 1084,-63.8 1084,-63.8 565.78,-63.8 565.78,-63.8"/>
<polygon fill="black" stroke="black" points="565.78,-60.3 555.78,-63.8 565.78,-67.3 565.78,-60.3"/>
</g>
<!-- HeaderComponent -->
<g id="node21" class="node">
<title>HeaderComponent</title>
<polygon fill="#ffffb3" stroke="black" points="1006.75,-160.8 885.25,-160.8 885.25,-124.8 1006.75,-124.8 1006.75,-160.8"/>
<text text-anchor="middle" x="946" y="-138.6" font-family="Times,serif" font-size="14.00">HeaderComponent</text>
</g>
<!-- HeaderComponent&#45;&gt;LayoutModule -->
<g id="edge20" class="edge">
<title>HeaderComponent&#45;&gt;LayoutModule</title>
<path fill="none" stroke="black" d="M946,-124.63C946,-103.3 946,-70.8 946,-70.8 946,-70.8 565.62,-70.8 565.62,-70.8"/>
<polygon fill="black" stroke="black" points="565.62,-67.3 555.62,-70.8 565.62,-74.3 565.62,-67.3"/>
</g>
<!-- BlogComponent -->
<g id="node24" class="node">
<title>BlogComponent</title>
<polygon fill="#ffffb3" stroke="black" points="2460.06,-84.8 2351.94,-84.8 2351.94,-48.8 2460.06,-48.8 2460.06,-84.8"/>
<text text-anchor="middle" x="2406" y="-62.6" font-family="Times,serif" font-size="14.00">BlogComponent</text>
</g>
<!-- BlogComponent&#45;&gt;ProduitModule -->
<g id="edge23" class="edge">
<title>BlogComponent&#45;&gt;ProduitModule</title>
<path fill="none" stroke="black" d="M2375.77,-84.81C2375.77,-84.81 2375.77,-114.65 2375.77,-114.65"/>
<polygon fill="black" stroke="black" points="2372.27,-114.65 2375.77,-124.65 2379.27,-114.65 2372.27,-114.65"/>
</g>
<!-- CardComponent -->
<g id="node25" class="node">
<title>CardComponent</title>
<polygon fill="#ffffb3" stroke="black" points="3662.05,-84.8 3553.95,-84.8 3553.95,-48.8 3662.05,-48.8 3662.05,-84.8"/>
<text text-anchor="middle" x="3608" y="-62.6" font-family="Times,serif" font-size="14.00">CardComponent</text>
</g>
<!-- CardComponent&#45;&gt;ProduitModule -->
<g id="edge24" class="edge">
<title>CardComponent&#45;&gt;ProduitModule</title>
<path fill="none" stroke="black" d="M3608,-85.08C3608,-100.75 3608,-120.8 3608,-120.8 3608,-120.8 2446.31,-120.8 2446.31,-120.8 2446.31,-120.8 2446.31,-121.18 2446.31,-121.18"/>
<polygon fill="black" stroke="black" points="2442.81,-114.63 2446.31,-124.63 2449.81,-114.63 2442.81,-114.63"/>
</g>
<!-- CatalogueComponent -->
<g id="node26" class="node">
<title>CatalogueComponent</title>
<polygon fill="#ffffb3" stroke="black" points="3536.09,-84.8 3397.91,-84.8 3397.91,-48.8 3536.09,-48.8 3536.09,-84.8"/>
<text text-anchor="middle" x="3467" y="-62.6" font-family="Times,serif" font-size="14.00">CatalogueComponent</text>
</g>
<!-- CatalogueComponent&#45;&gt;ProduitModule -->
<g id="edge25" class="edge">
<title>CatalogueComponent&#45;&gt;ProduitModule</title>
<path fill="none" stroke="black" d="M3467,-84.85C3467,-99.17 3467,-116.8 3467,-116.8 3467,-116.8 2436.23,-116.8 2436.23,-116.8 2436.23,-116.8 2436.23,-117.59 2436.23,-117.59"/>
<polygon fill="black" stroke="black" points="2432.73,-114.74 2436.23,-124.74 2439.73,-114.74 2432.73,-114.74"/>
</g>
<!-- ChoixBoissonComponent -->
<g id="node27" class="node">
<title>ChoixBoissonComponent</title>
<polygon fill="#ffffb3" stroke="black" points="3380.18,-84.8 3219.82,-84.8 3219.82,-48.8 3380.18,-48.8 3380.18,-84.8"/>
<text text-anchor="middle" x="3300" y="-62.6" font-family="Times,serif" font-size="14.00">ChoixBoissonComponent</text>
</g>
<!-- ChoixBoissonComponent&#45;&gt;ProduitModule -->
<g id="edge26" class="edge">
<title>ChoixBoissonComponent&#45;&gt;ProduitModule</title>
<path fill="none" stroke="black" d="M3290.8,-84.84C3290.8,-97.36 3290.8,-111.8 3290.8,-111.8 3290.8,-111.8 2426.16,-111.8 2426.16,-111.8 2426.16,-111.8 2426.16,-114.77 2426.16,-114.77"/>
<polygon fill="black" stroke="black" points="2422.66,-114.77 2426.16,-124.77 2429.66,-114.77 2422.66,-114.77"/>
</g>
<!-- ComplementComponent -->
<g id="node28" class="node">
<title>ComplementComponent</title>
<polygon fill="#ffffb3" stroke="black" points="3201.66,-84.8 3048.34,-84.8 3048.34,-48.8 3201.66,-48.8 3201.66,-84.8"/>
<text text-anchor="middle" x="3125" y="-62.6" font-family="Times,serif" font-size="14.00">ComplementComponent</text>
</g>
<!-- ComplementComponent&#45;&gt;ProduitModule -->
<g id="edge27" class="edge">
<title>ComplementComponent&#45;&gt;ProduitModule</title>
<path fill="none" stroke="black" d="M3056.92,-84.9C3056.92,-95.89 3056.92,-107.8 3056.92,-107.8 3056.92,-107.8 2416.08,-107.8 2416.08,-107.8 2416.08,-107.8 2416.08,-114.48 2416.08,-114.48"/>
<polygon fill="black" stroke="black" points="2412.58,-114.48 2416.08,-124.48 2419.58,-114.48 2412.58,-114.48"/>
</g>
<!-- CompterComponent -->
<g id="node29" class="node">
<title>CompterComponent</title>
<polygon fill="#ffffb3" stroke="black" points="3030.32,-84.8 2899.68,-84.8 2899.68,-48.8 3030.32,-48.8 3030.32,-84.8"/>
<text text-anchor="middle" x="2965" y="-62.6" font-family="Times,serif" font-size="14.00">CompterComponent</text>
</g>
<!-- CompterComponent&#45;&gt;ProduitModule -->
<g id="edge28" class="edge">
<title>CompterComponent&#45;&gt;ProduitModule</title>
<path fill="none" stroke="black" d="M2919.17,-85.22C2919.17,-94.08 2919.17,-102.8 2919.17,-102.8 2919.17,-102.8 2406,-102.8 2406,-102.8 2406,-102.8 2406,-114.67 2406,-114.67"/>
<polygon fill="black" stroke="black" points="2402.5,-114.67 2406,-124.67 2409.5,-114.67 2402.5,-114.67"/>
</g>
<!-- DetailComponent -->
<g id="node30" class="node">
<title>DetailComponent</title>
<polygon fill="#ffffb3" stroke="black" points="2881.54,-84.8 2766.46,-84.8 2766.46,-48.8 2881.54,-48.8 2881.54,-84.8"/>
<text text-anchor="middle" x="2824" y="-62.6" font-family="Times,serif" font-size="14.00">DetailComponent</text>
</g>
<!-- DetailComponent&#45;&gt;ProduitModule -->
<g id="edge29" class="edge">
<title>DetailComponent&#45;&gt;ProduitModule</title>
<path fill="none" stroke="black" d="M2775.89,-85.04C2775.89,-92.23 2775.89,-98.8 2775.89,-98.8 2775.89,-98.8 2395.92,-98.8 2395.92,-98.8 2395.92,-98.8 2395.92,-114.65 2395.92,-114.65"/>
<polygon fill="black" stroke="black" points="2392.42,-114.65 2395.92,-124.65 2399.42,-114.65 2392.42,-114.65"/>
</g>
<!-- DetailMenuComponent -->
<g id="node31" class="node">
<title>DetailMenuComponent</title>
<polygon fill="#ffffb3" stroke="black" points="2748.2,-84.8 2599.8,-84.8 2599.8,-48.8 2748.2,-48.8 2748.2,-84.8"/>
<text text-anchor="middle" x="2674" y="-62.6" font-family="Times,serif" font-size="14.00">DetailMenuComponent</text>
</g>
<!-- DetailMenuComponent&#45;&gt;ProduitModule -->
<g id="edge30" class="edge">
<title>DetailMenuComponent&#45;&gt;ProduitModule</title>
<path fill="none" stroke="black" d="M2621.75,-84.96C2621.75,-89.84 2621.75,-93.8 2621.75,-93.8 2621.75,-93.8 2385.84,-93.8 2385.84,-93.8 2385.84,-93.8 2385.84,-114.55 2385.84,-114.55"/>
<polygon fill="black" stroke="black" points="2382.34,-114.55 2385.84,-124.55 2389.34,-114.55 2382.34,-114.55"/>
</g>
<!-- ListComponent -->
<g id="node32" class="node">
<title>ListComponent</title>
<polygon fill="#ffffb3" stroke="black" points="2581.61,-84.8 2478.39,-84.8 2478.39,-48.8 2581.61,-48.8 2581.61,-84.8"/>
<text text-anchor="middle" x="2530" y="-62.6" font-family="Times,serif" font-size="14.00">ListComponent</text>
</g>
<!-- ListComponent&#45;&gt;ProduitModule -->
<g id="edge31" class="edge">
<title>ListComponent&#45;&gt;ProduitModule</title>
<path fill="none" stroke="black" d="M2478.25,-66.8C2471.76,-66.8 2467.34,-66.8 2467.34,-66.8 2467.34,-66.8 2467.34,-142.8 2467.34,-142.8 2467.34,-142.8 2466.24,-142.8 2466.24,-142.8"/>
<polygon fill="black" stroke="black" points="2466.37,-139.3 2456.37,-142.8 2466.37,-146.3 2466.37,-139.3"/>
</g>
<!-- ProduitRoutingModule -->
<g id="node33" class="node">
<title>ProduitRoutingModule</title>
<polygon fill="#8dd3c7" stroke="black" points="2327.9,-84.8 2324.9,-88.8 2303.9,-88.8 2300.9,-84.8 2182.1,-84.8 2182.1,-48.8 2327.9,-48.8 2327.9,-84.8"/>
<text text-anchor="middle" x="2255" y="-62.6" font-family="Times,serif" font-size="14.00">ProduitRoutingModule</text>
</g>
<!-- ProduitRoutingModule&#45;&gt;ProduitModule -->
<g id="edge33" class="edge">
<title>ProduitRoutingModule&#45;&gt;ProduitModule</title>
<path fill="none" stroke="black" d="M2255,-84.97C2255,-103.89 2255,-130.8 2255,-130.8 2255,-130.8 2345.72,-130.8 2345.72,-130.8"/>
<polygon fill="black" stroke="black" points="2345.72,-134.3 2355.72,-130.8 2345.72,-127.3 2345.72,-134.3"/>
</g>
<!-- ConnexionComponent -->
<g id="node39" class="node">
<title>ConnexionComponent</title>
<polygon fill="#ffffb3" stroke="black" points="4018.27,-84.8 3875.73,-84.8 3875.73,-48.8 4018.27,-48.8 4018.27,-84.8"/>
<text text-anchor="middle" x="3947" y="-62.6" font-family="Times,serif" font-size="14.00">ConnexionComponent</text>
</g>
<!-- SecuriteModule -->
<g id="node40" class="node">
<title>SecuriteModule</title>
<polygon fill="#8dd3c7" stroke="black" points="3913.92,-160.8 3910.92,-164.8 3889.92,-164.8 3886.92,-160.8 3808.08,-160.8 3808.08,-124.8 3913.92,-124.8 3913.92,-160.8"/>
<text text-anchor="middle" x="3861" y="-138.6" font-family="Times,serif" font-size="14.00">SecuriteModule</text>
</g>
<!-- ConnexionComponent&#45;&gt;SecuriteModule -->
<g id="edge39" class="edge">
<title>ConnexionComponent&#45;&gt;SecuriteModule</title>
<path fill="none" stroke="black" d="M3894.66,-84.81C3894.66,-84.81 3894.66,-114.65 3894.66,-114.65"/>
<polygon fill="black" stroke="black" points="3891.16,-114.65 3894.66,-124.65 3898.16,-114.65 3891.16,-114.65"/>
</g>
<!-- ConnexionComponent  -->
<g id="node42" class="node">
<title>ConnexionComponent </title>
<polygon fill="#fb8072" stroke="black" points="3934.27,-228.8 3787.73,-228.8 3787.73,-192.8 3934.27,-192.8 3934.27,-228.8"/>
<text text-anchor="middle" x="3861" y="-206.6" font-family="Times,serif" font-size="14.00">ConnexionComponent </text>
</g>
<!-- SecuriteModule&#45;&gt;ConnexionComponent  -->
<g id="edge41" class="edge">
<title>SecuriteModule&#45;&gt;ConnexionComponent </title>
<path fill="none" stroke="black" stroke-dasharray="5,2" d="M3861,-161.02C3861,-161.02 3861,-182.53 3861,-182.53"/>
<polygon fill="black" stroke="black" points="3857.5,-182.53 3861,-192.53 3864.5,-182.53 3857.5,-182.53"/>
</g>
<!-- SecuriteRoutingModule -->
<g id="node41" class="node">
<title>SecuriteRoutingModule</title>
<polygon fill="#8dd3c7" stroke="black" points="3852.04,-84.8 3849.04,-88.8 3828.04,-88.8 3825.04,-84.8 3701.96,-84.8 3701.96,-48.8 3852.04,-48.8 3852.04,-84.8"/>
<text text-anchor="middle" x="3777" y="-62.6" font-family="Times,serif" font-size="14.00">SecuriteRoutingModule</text>
</g>
<!-- SecuriteRoutingModule&#45;&gt;SecuriteModule -->
<g id="edge40" class="edge">
<title>SecuriteRoutingModule&#45;&gt;SecuriteModule</title>
<path fill="none" stroke="black" d="M3830.28,-84.81C3830.28,-84.81 3830.28,-114.65 3830.28,-114.65"/>
<polygon fill="black" stroke="black" points="3826.78,-114.65 3830.28,-124.65 3833.78,-114.65 3826.78,-114.65"/>
</g>
</g>
</svg>
